<svg id="logo" xmlns="http://www.w3.org/2000/svg" viewBox="0 0 372.29 325.11"><defs><style>.cls-1{fill:#d3356d;}</style></defs><path class="cls-1" d="M-3190.24,18.75V82.09a8.17,8.17,0,0,0,13,6.57l57.09-42V200.54h47.95a20.72,20.72,0,0,0,20.71-20.72V-76.39Z" transform="translate(3423.77 124.57)"/><path class="cls-1" d="M-3353.67-76.39V180.12a20.42,20.42,0,0,0,20.42,20.42H-3285V46.63l57.1,42a8.17,8.17,0,0,0,13-6.57V18.75Z" transform="translate(3423.77 124.57)"/><path class="cls-1" d="M-3417.12-43.58l63.45,46.71V-76.35l-70.1-48.22v67.84A16.32,16.32,0,0,0-3417.12-43.58Z" transform="translate(3423.77 124.57)"/></svg>