<svg xmlns="http://www.w3.org/2000/svg" viewBox="0 0 156.85 158.02"><defs><style>.cls-1{isolation:isolate;}.cls-2{mix-blend-mode:overlay;}.cls-3,.cls-4{fill:none;stroke-miterlimit:10;stroke-width:9px;}.cls-3{stroke:#952b85;}.cls-4{stroke:#3864a0;}.cls-5{fill:#6aa3c0;}.cls-6{fill:#3864a0;}</style></defs><title>Elephant</title><g class="cls-1"><g id="Layer_13" data-name="Layer 13"><g class="cls-2"><path class="cls-3" d="M873.5,602.55" transform="translate(-815.66 -446.51)"/></g><line class="cls-4" x1="57.84" y1="121.99" x2="57.84" y2="157.99"/><line class="cls-4" x1="76.84" y1="117.99" x2="76.84" y2="153.99"/><line class="cls-4" x1="119.84" y1="117.99" x2="119.84" y2="153.99"/><line class="cls-4" x1="137.84" y1="121.99" x2="137.84" y2="157.99"/><path class="cls-5" d="M828.43,529.47A86.13,86.13,0,0,1,852,555c5.2,8.67,9,18.49,16.56,25.23a42.73,42.73,0,0,0,14.3,8.08c14.79,5.27,31.3,4.93,46.3.28A94.9,94.9,0,0,0,957.57,574q.78-9.74,1.57-19.47c.71-8.85,1.42-17.77.53-26.61s-3.51-17.7-8.86-24.8a64.35,64.35,0,0,0-9.12-9.33,242.59,242.59,0,0,0-72-43.63c-7.12-2.76-15.15-5.18-22.22-2.31a22.82,22.82,0,0,0-7.32,5.11c-7.94,7.87-12,18.78-15,29.54-3.75,13.36-5.57,26.92-7.21,40.55q-.69,5.85-1.4,11.72c-2.18,17.65.19,37,3.6,54.3q1.51,7.69,3.59,15.26c.1,0,.2.06.3.09a4.36,4.36,0,0,0,3.41-.42,5.59,5.59,0,0,0,1.33-1.37c.29-.39.57-.79.83-1.2A106.36,106.36,0,0,1,828.43,529.47Z" transform="translate(-815.66 -446.51)"/><path class="cls-6" d="M870.11,474.46a.76.76,0,0,0-.55.08,2.48,2.48,0,0,0-1.3,1.5l0,.09c4.52,2.39,5.36,8.46,5.17,13.56-.56,15.4-5.4,30.71-3.37,46,.51,3.79,1.94,8.11,5.56,9.32a7.63,7.63,0,0,0,6.84-1.47,20.27,20.27,0,0,0,4.64-5.56A234.3,234.3,0,0,0,902,509.68c2.62-5.71,5.2-12.25,2.82-18.06-1.9-4.66-6.54-7.57-11.08-9.75A85.91,85.91,0,0,0,870,474.49" transform="translate(-815.66 -446.51)"/><path class="cls-6" d="M839.69,499.4c6.43,0,6.45-10,0-10s-6.45,10,0,10Z" transform="translate(-815.66 -446.51)"/><path class="cls-6" d="M959,525.45a22.9,22.9,0,0,1,6.66,10.74,46.09,46.09,0,0,1,1.26,7.38l.87,7.66,1,8.67c.07.64,1.07.64,1,0q-.91-8-1.82-16a54.72,54.72,0,0,0-1.18-7.43,23.65,23.65,0,0,0-7.08-11.75c-.47-.43-1.18.27-.7.7Z" transform="translate(-815.66 -446.51)"/><path class="cls-6" d="M968.32,556.43l3.34,4.31a.5.5,0,0,0,.71,0,.51.51,0,0,0,0-.7L969,555.72a.5.5,0,0,0-.71.71Z" transform="translate(-815.66 -446.51)"/><path class="cls-6" d="M968.31,556.55l-1.69,4.24a.51.51,0,0,0,.35.62.52.52,0,0,0,.62-.35l1.68-4.25a.5.5,0,0,0-1-.26Z" transform="translate(-815.66 -446.51)"/></g></g></svg>