<svg xmlns="http://www.w3.org/2000/svg" viewBox="0 0 156.13 159.74"><defs><style>.cls-1{fill:#54672b;}.cls-2{fill:#7b9042;}.cls-3{fill:#e65553;}.cls-4{fill:#cc3746;}.cls-5{fill:#e86b57;}.cls-6{fill:#ae2d3a;}.cls-7{fill:#e53f4f;}.cls-8{fill:#abc23c;}.cls-9{fill:#e5514c;}.cls-10{fill:#e6624f;}</style></defs><title>ObstaclePlant</title><g id="Path"><rect class="cls-1" x="5.42" y="9.03" width="150.72" height="150.72" rx="17.74"/><rect class="cls-2" width="150.72" height="150.72" rx="17.74"/></g><g id="Obstacle_tiles" data-name="Obstacle tiles"><g id="Layer_19" data-name="Layer 19"><path class="cls-3" d="M765.23,552.15c3-.69,5.86-2.4,9.14-1.58.84,6.62,2.5,8.33,8.2,8.46-.5,2-1,4-1.49,6H772l-.68-.06a4.2,4.2,0,0,0-1.71-4.27c-1.64-1.11-3.35-2.13-5-3.19Z" transform="translate(-670.35 -464.35)"/><path class="cls-4" d="M793.85,574.11c-5.66.75-11.14-.5-16.64-1.47,3.52-1.41,2.94-4.89,3.86-7.61h0c4.19-.32,8.08-1.78,12-3.14l.75.13C794.39,566,792.72,570.08,793.85,574.11Z" transform="translate(-670.35 -464.35)"/><path class="cls-5" d="M793.83,562l-.75-.13c-3.27-1.81-7-1.85-10.51-2.85-5.7-.13-7.36-1.84-8.2-8.46a6.91,6.91,0,0,1,1.79.45c5.28,2.92,10.75,4.41,16.74,2.48-.07,2.91,2,5.41,1.58,8.39C794.26,561.92,794,562,793.83,562Z" transform="translate(-670.35 -464.35)"/><path class="cls-5" d="M765.23,552.15c-.23,1.79-.45,3.57-.68,5.36q-.78,4.47-1.58,8.94c-1.3,2.14-2.77,4.2-3,6.82-.65.56-1.11.39-1.31-.4a40,40,0,0,1-1.58-13.2c.19-2.52,2.23-3.1,3.56-4.4A12.93,12.93,0,0,1,765.23,552.15Z" transform="translate(-670.35 -464.35)"/><path class="cls-6" d="M793.83,562c.21,0,.43-.09.65-.12,1.77.4,3.54.77,5.28,1.22,1.35.35,2.65.78,3.3-1,2.59,4.27.76,9.28-3.89,10.63-1.76.51-3.55.92-5.32,1.38C792.72,570.08,794.39,566,793.83,562Z" transform="translate(-670.35 -464.35)"/><path class="cls-6" d="M760,573.27c.19-2.62,1.66-4.68,3-6.82a30.56,30.56,0,0,0,8.32-1.48l.68.06c.8,2.28-2,5,.84,7C768.42,571.17,764.36,573.78,760,573.27Z" transform="translate(-670.35 -464.35)"/><path class="cls-7" d="M803.06,562.1c-.65,1.79-1.95,1.36-3.3,1-1.74-.45-3.51-.82-5.28-1.22.44-3-1.65-5.48-1.58-8.39C798.48,553.77,801.5,557.07,803.06,562.1Z" transform="translate(-670.35 -464.35)"/><path class="cls-7" d="M772.81,572.05c-2.81-2,0-4.74-.84-7h9.1c-.92,2.72-.34,6.2-3.86,7.61A8.81,8.81,0,0,1,772.81,572.05Z" transform="translate(-670.35 -464.35)"/><path class="cls-7" d="M771.29,565a30.56,30.56,0,0,1-8.32,1.48q.79-4.47,1.58-8.94c1.68,1.06,3.39,2.08,5,3.19A4.2,4.2,0,0,1,771.29,565Z" transform="translate(-670.35 -464.35)"/><path class="cls-7" d="M782.57,559c3.49,1,7.24,1,10.51,2.85-3.92,1.36-7.81,2.82-12,3.14C781.58,563,782.07,561,782.57,559Z" transform="translate(-670.35 -464.35)"/><ellipse class="cls-8" cx="69.77" cy="75.64" rx="43.5" ry="35"/><path class="cls-9" d="M745.19,574.64c7.52-6.24,9-16.54,9-25.73a140.41,140.41,0,0,0-.86-16.14,40.68,40.68,0,0,0-1.42-7.42,30.32,30.32,0,0,0-3.22-6.69q-2.32-3.84-4.66-7.66c-1.36-2.23-2.71-4.54-4.79-6.18-.5-.4-1.21.31-.71.71a18.9,18.9,0,0,1,4.21,5.27q2,3.36,4.09,6.72a44.62,44.62,0,0,1,3.54,6.47,30.86,30.86,0,0,1,1.74,7,127,127,0,0,1,1,15.72,54.21,54.21,0,0,1-1.33,15,23.44,23.44,0,0,1-7.31,12.15c-.5.41.21,1.11.7.71Z" transform="translate(-670.35 -464.35)"/><path class="cls-9" d="M750.9,574.31c4.05-3.29,8.21-6.7,10.9-11.25s3.53-9.76,3.54-14.92a88.59,88.59,0,0,0-1.68-15.82c-.9-5-2.32-10.06-5.44-14.15a46.76,46.76,0,0,0-6.84-6.65l-7.88-6.85c-.48-.42-1.19.29-.71.71l6.77,5.88c2.15,1.86,4.38,3.67,6.34,5.73,3.59,3.78,5.36,8.65,6.42,13.66a94.07,94.07,0,0,1,2,15.14c.22,5.12-.23,10.42-2.47,15.09-2.54,5.3-7.16,9.09-11.62,12.73-.5.4.21,1.11.7.7Z" transform="translate(-670.35 -464.35)"/><path class="cls-9" d="M760.35,571.19a40.39,40.39,0,0,0,10.06-10.87,36,36,0,0,0,5.45-14.78,27.57,27.57,0,0,0-.61-8.73,71.28,71.28,0,0,0-2.15-8.55c-1.78-5.26-5.51-9.5-9.5-13.26a65.27,65.27,0,0,0-15.31-10.48c-.57-.29-1.08.57-.5.87a65.1,65.1,0,0,1,13.34,8.73,58.67,58.67,0,0,1,5.6,5.55,27.76,27.76,0,0,1,4.6,6.76,42.67,42.67,0,0,1,2.35,7.92A38.88,38.88,0,0,1,775,543c0,5.28-1.92,10.59-4.49,15.14a39,39,0,0,1-10.66,12.14c-.51.38,0,1.25.5.87Z" transform="translate(-670.35 -464.35)"/><path class="cls-9" d="M772,563.65c4.74-4.07,7.41-9.89,9.31-15.72,1.06-3.23,2.23-6.66,2.28-10.09.05-3.6-1.58-6.88-3-10.08a41.89,41.89,0,0,0-5.76-9.85c-.42-.5-1.12.22-.71.71a37.87,37.87,0,0,1,5.06,8.45c1.42,3,3.18,6.29,3.41,9.7s-.91,6.76-1.91,9.94a51,51,0,0,1-3.35,8.43,26,26,0,0,1-6,7.81c-.49.42.22,1.12.71.7Z" transform="translate(-670.35 -464.35)"/><path class="cls-9" d="M736.87,574.21a43.05,43.05,0,0,1-16.45-24.3,46.55,46.55,0,0,1-.95-16,59,59,0,0,1,1.29-9.18,20.48,20.48,0,0,1,3.27-6.88c3.31-4.62,8-8,12.18-11.8.48-.43-.23-1.14-.71-.71-3.86,3.46-8.07,6.62-11.34,10.69a22.79,22.79,0,0,0-3.75,6.45,36.84,36.84,0,0,0-1.69,9,72.44,72.44,0,0,0-.56,9.43,42.19,42.19,0,0,0,.89,7.51,44.44,44.44,0,0,0,5.64,14.14,43.43,43.43,0,0,0,11.68,12.55c.52.37,1-.5.5-.87Z" transform="translate(-670.35 -464.35)"/><path class="cls-9" d="M727.24,572.33c-2.22-1.76-4.45-3.51-6.65-5.28a44.33,44.33,0,0,1-5.42-4.92,18,18,0,0,1-3.79-6.41,80,80,0,0,1-2-8.23c-.62-2.9-1.28-5.8-1.75-8.73a16.85,16.85,0,0,1,.49-8.46,28.74,28.74,0,0,1,3.7-6.77,55.86,55.86,0,0,1,4.7-5.93A57.61,57.61,0,0,1,729.51,507c.55-.33,0-1.2-.5-.87a58.91,58.91,0,0,0-12,9.6,58.21,58.21,0,0,0-5,5.9,38.69,38.69,0,0,0-4.13,6.73,16.51,16.51,0,0,0-1.52,7.92,63.46,63.46,0,0,0,1.52,8.85c.62,2.94,1.2,5.89,1.92,8.81A20.08,20.08,0,0,0,713,561a33.57,33.57,0,0,0,5.94,6c2.5,2,5.07,4,7.6,6,.5.4,1.21-.31.71-.7Z" transform="translate(-670.35 -464.35)"/><path class="cls-9" d="M712.91,566.74c-6.52-6.82-11.79-15.29-12.63-24.88a28,28,0,0,1,2.19-13.7,35.71,35.71,0,0,1,7.76-11A55.4,55.4,0,0,1,723,508c.57-.31.06-1.17-.51-.86-8.27,4.46-16,10.6-20.24,19.19a29.1,29.1,0,0,0-3,13.83,35.22,35.22,0,0,0,3.67,14.23,51.92,51.92,0,0,0,9.35,13.05c.45.47,1.16-.24.71-.71Z" transform="translate(-670.35 -464.35)"/><path class="cls-9" d="M741.73,573.37c-1.94-3.71-2.44-8-3.06-12-.68-4.5-1.35-9-1.83-13.54a123.15,123.15,0,0,1-.7-13.58c0-4.57.29-9.13.61-13.69.18-2.43.32-4.87.57-7.29a23.32,23.32,0,0,1,1.65-7c.25-.59-.61-1.1-.87-.51-1.72,3.92-1.86,8.27-2.18,12.48-.34,4.68-.66,9.37-.76,14.06a163.49,163.49,0,0,0,2.29,27.67c.71,4.72,1.17,9.68,3.42,14,.3.57,1.16.07.86-.5Z" transform="translate(-670.35 -464.35)"/><path class="cls-9" d="M748.78,519.18A66.85,66.85,0,0,0,751,507.69c0-.56-.86-.67-1-.13q-.67,2.87-1.57,5.66c-.29.9-.6,1.8-.92,2.68-.13.33-.48.92-.39,1.29a5.23,5.23,0,0,0,.71,1.17c.34.55,1.21,0,.86-.5l-.65-1.06.05.39a72.94,72.94,0,0,0,2.88-9.37l-1-.13a65,65,0,0,1-2.2,11.23.5.5,0,0,0,1,.26Z" transform="translate(-670.35 -464.35)"/><path class="cls-9" d="M748.49,517.68a20.54,20.54,0,0,0,.92-2.88.5.5,0,0,0-1-.26,20.92,20.92,0,0,1-.91,2.88.49.49,0,0,0,.35.61.5.5,0,0,0,.61-.35Z" transform="translate(-670.35 -464.35)"/><path class="cls-9" d="M749.17,519.56q2.82-3.84,5.33-7.91l-.87-.51a64.71,64.71,0,0,0-4.19,8.82h1a.75.75,0,0,1,.14-.69c.41-.49-.3-1.21-.71-.71a1.85,1.85,0,0,0-.4,1.67c.13.52.79.41,1,0a61.86,61.86,0,0,1,4.09-8.58.5.5,0,0,0-.87-.51q-2.49,4.07-5.32,7.92c-.38.52.48,1,.86.5Z" transform="translate(-670.35 -464.35)"/><path class="cls-9" d="M749.73,518.19l-.58,1.12.87.5.21-.44-.91-.39a8.68,8.68,0,0,1-.23,1,.5.5,0,0,0,.35.61.5.5,0,0,0,.61-.35,6.9,6.9,0,0,0,.23-1,.5.5,0,0,0,0-.38.5.5,0,0,0-.86,0l-.22.44a.56.56,0,0,0,0,.38.47.47,0,0,0,.23.3.51.51,0,0,0,.69-.18l.58-1.11a.5.5,0,1,0-.87-.51Z" transform="translate(-670.35 -464.35)"/><path class="cls-9" d="M748.61,518.93a61.92,61.92,0,0,0-5.38-6.3l-.7.71,5.49,5.58c.45.46,1.16-.25.7-.71l-5.49-5.58c-.45-.46-1.15.25-.7.71a59.56,59.56,0,0,1,5.22,6.1.5.5,0,0,0,.68.18.52.52,0,0,0,.18-.69Z" transform="translate(-670.35 -464.35)"/><path class="cls-9" d="M748.2,518a41.91,41.91,0,0,0-4.89,3.81.51.51,0,0,0,.36.85,3,3,0,0,0,1.39-.64l1.37-.87,2.78-1.78c.54-.35,0-1.21-.5-.87l-2.61,1.67-1.28.82-.61.4a1.31,1.31,0,0,1-.54.27l.35.86a38.2,38.2,0,0,1,4.68-3.65c.54-.36,0-1.23-.5-.87Z" transform="translate(-670.35 -464.35)"/><path class="cls-9" d="M748.69,519.66q.34.26.72.57c.26.22.51.45.76.69a17.28,17.28,0,0,1,1.35,1.49l.71-.7c-1.07-.92-2.1-1.86-3.1-2.85a.5.5,0,0,0-.71.71c1,1,2,1.93,3.1,2.84a.5.5,0,0,0,.71-.7,16.82,16.82,0,0,0-3-2.92.5.5,0,0,0-.68.18.52.52,0,0,0,.18.69Z" transform="translate(-670.35 -464.35)"/><path class="cls-9" d="M752.36,528.45a63.05,63.05,0,0,0,4.91-10c.24-.6-.72-.85-1-.26l-4.69,11.32c-.24.6.72.85,1,.27l4.68-11.33-1-.26a62.16,62.16,0,0,1-4.81,9.75.5.5,0,0,0,.86.51Z" transform="translate(-670.35 -464.35)"/><path class="cls-9" d="M752.57,528.56l-6.05-3.81a.5.5,0,0,0-.51.87l6.52,5a.5.5,0,1,0,.51-.86l-6.52-5-.51.87,6,3.8c.55.35,1.05-.52.51-.86Z" transform="translate(-670.35 -464.35)"/><path class="cls-9" d="M752.53,529.16a41.18,41.18,0,0,0-3.12-5.82l-.87.5,2.83,3.74a.51.51,0,0,0,.68.18.5.5,0,0,0,.18-.69l-2.82-3.73a.5.5,0,0,0-.87.5,40.24,40.24,0,0,1,3.13,5.82.49.49,0,0,0,.68.18.5.5,0,0,0,.18-.68Z" transform="translate(-670.35 -464.35)"/><path class="cls-9" d="M752.25,529.25a53.28,53.28,0,0,1,4.39,4.88l.79-.61a32.93,32.93,0,0,0-6.17-5.18c-.55-.35-1,.51-.51.86a31.54,31.54,0,0,1,6,5c.38.4,1.14-.15.79-.61a54.68,54.68,0,0,0-4.55-5.07.5.5,0,0,0-.71.7Z" transform="translate(-670.35 -464.35)"/><path class="cls-9" d="M752.31,529a24.61,24.61,0,0,0,4-1.28l-.49-.84a22.15,22.15,0,0,1-3.06,2.4.53.53,0,0,0-.18.69.52.52,0,0,0,.69.18,23.7,23.7,0,0,0,3.26-2.56.5.5,0,0,0,.08-.6.49.49,0,0,0-.57-.23,24,24,0,0,1-4,1.28.51.51,0,0,0-.35.61.52.52,0,0,0,.62.35Z" transform="translate(-670.35 -464.35)"/><path class="cls-9" d="M753.15,528.19l-.53.34a.35.35,0,0,0-.14.13.46.46,0,0,0-.09.17.45.45,0,0,0,0,.2.48.48,0,0,0,.06.18.46.46,0,0,0,.3.23l.13,0a.48.48,0,0,0,.26-.07l.53-.34a.35.35,0,0,0,.14-.13.46.46,0,0,0,.09-.17.45.45,0,0,0,0-.2.55.55,0,0,0-.06-.18.46.46,0,0,0-.3-.23l-.14,0a.45.45,0,0,0-.25.07Z" transform="translate(-670.35 -464.35)"/><path class="cls-9" d="M751.62,529a30.57,30.57,0,0,1-2.75,2.94.5.5,0,0,0,0,.71.5.5,0,0,0,.7,0,28.51,28.51,0,0,0,2.76-3,.51.51,0,0,0,0-.7.5.5,0,0,0-.71,0Z" transform="translate(-670.35 -464.35)"/><path class="cls-9" d="M749.6,532.61a35.2,35.2,0,0,0,3.35-2.08.51.51,0,0,0,.18-.68.5.5,0,0,0-.68-.18,37.35,37.35,0,0,1-3.35,2.08.49.49,0,0,0-.18.68.5.5,0,0,0,.68.18Z" transform="translate(-670.35 -464.35)"/><path class="cls-9" d="M751.48,529.26h-.09a.41.41,0,0,0-.19,0,.34.34,0,0,0-.16.1.42.42,0,0,0-.11.16.43.43,0,0,0,0,.19l0,.14a.42.42,0,0,0,.13.22l.1.08a.54.54,0,0,0,.25.06h.09a.31.31,0,0,0,.19,0,.34.34,0,0,0,.16-.1.39.39,0,0,0,.1-.16.35.35,0,0,0,.05-.2l0-.13a.5.5,0,0,0-.13-.22l-.1-.08a.55.55,0,0,0-.25-.07Z" transform="translate(-670.35 -464.35)"/><path class="cls-9" d="M754.2,550a89,89,0,0,0,5.9-9.54c.31-.56-.55-1.07-.87-.51l-6.06,10.61a.5.5,0,0,0,.86.5l6.07-10.6-.87-.51a86.4,86.4,0,0,1-5.89,9.54c-.39.52.48,1,.86.51Z" transform="translate(-670.35 -464.35)"/><path class="cls-9" d="M753.94,549.38a54.55,54.55,0,0,0-7.86-7.25c-.51-.39-1,.48-.5.87a52.42,52.42,0,0,1,7.65,7.09c.43.48,1.13-.23.71-.71Z" transform="translate(-670.35 -464.35)"/><path class="cls-9" d="M753.29,549.27a26.49,26.49,0,0,0-4.53,1.43.5.5,0,1,0,.27,1l4.54-1a.49.49,0,0,0,.35-.61.5.5,0,0,0-.61-.35l-4.55,1,.27,1a27.4,27.4,0,0,1,4.53-1.43.51.51,0,0,0,.35-.61.52.52,0,0,0-.62-.35Z" transform="translate(-670.35 -464.35)"/><path class="cls-9" d="M754.19,548.68a60.52,60.52,0,0,0-2-6.44l-.91.39a31.93,31.93,0,0,1,2.22,5.84.5.5,0,0,0,1-.27,33.4,33.4,0,0,0-2.32-6.08c-.25-.5-1.11-.15-.91.39a59.61,59.61,0,0,1,2,6.43.5.5,0,0,0,1-.26Z" transform="translate(-670.35 -464.35)"/><path class="cls-9" d="M753.41,550.45l2.47,2.59.71-.71a6.55,6.55,0,0,1-.65-.64,3.17,3.17,0,0,1-.3-.34c-.06-.06-.11-.13-.16-.19l-.07-.08s0,0,0,0a9.46,9.46,0,0,1-1-1.58.51.51,0,0,0-.69-.18.51.51,0,0,0-.18.68,10,10,0,0,0,2.32,3.08.5.5,0,0,0,.71,0,.51.51,0,0,0,0-.71l-2.48-2.59a.49.49,0,0,0-.7,0,.5.5,0,0,0,0,.71Z" transform="translate(-670.35 -464.35)"/><path class="cls-9" d="M753.41,551.35a13,13,0,0,0,4.36-.2.5.5,0,0,0,0-1c-1.22-.26-2.45-.49-3.68-.68a.5.5,0,0,0-.26,1c1.23.19,2.45.42,3.67.68v-1a12.48,12.48,0,0,1-4.09.16c-.27,0-.5.25-.5.5a.51.51,0,0,0,.5.5Z" transform="translate(-670.35 -464.35)"/><path class="cls-9" d="M751.31,566.8a21,21,0,0,0-2.45-6.49.5.5,0,0,0-.86.51,19.69,19.69,0,0,1,2.34,6.25c.13.63,1.09.36,1-.27Z" transform="translate(-670.35 -464.35)"/><path class="cls-9" d="M751.41,567.1a66.84,66.84,0,0,0,5.51-4l-.71-.71L751,566.64a.49.49,0,0,0,0,.7.51.51,0,0,0,.71,0l5.24-4.21a.5.5,0,1,0-.71-.71,60.37,60.37,0,0,1-5.31,3.81c-.54.35,0,1.21.51.87Z" transform="translate(-670.35 -464.35)"/><path class="cls-9" d="M751.45,566.89a68,68,0,0,0,2.78-6.3.51.51,0,0,0-.35-.61.52.52,0,0,0-.62.35c-.73,1.91-1.4,3.85-2,5.8-.19.62.77.88,1,.27.61-2,1.28-3.89,2-5.81l-1-.26q-1.18,3.09-2.67,6c-.29.58.57,1.08.86.51Z" transform="translate(-670.35 -464.35)"/><path class="cls-9" d="M750.77,567.52l1.29,3a.51.51,0,0,0,.92-.39c-.41-1.45-.78-2.9-1.12-4.37-.14-.63-1.11-.36-1,.26.33,1.47.71,2.93,1.11,4.38l.92-.39-1.3-3a.5.5,0,0,0-.68-.18.51.51,0,0,0-.18.69Z" transform="translate(-670.35 -464.35)"/><path class="cls-9" d="M751.82,567.27h2.48a.5.5,0,0,0,.5-.5.5.5,0,0,0-.5-.5h-2.48a.5.5,0,0,0,0,1Z" transform="translate(-670.35 -464.35)"/><path class="cls-9" d="M750.94,566.67c-2.4-.07-4.79-.07-7.19,0l.13,1a45.19,45.19,0,0,0,7.16-1.89c.6-.21.34-1.18-.27-1a46.47,46.47,0,0,1-7.15,1.89c-.56.1-.43,1,.13,1,2.4-.07,4.79-.07,7.19,0,.64,0,.64-1,0-1Z" transform="translate(-670.35 -464.35)"/><path class="cls-9" d="M749.84,567.49a9.5,9.5,0,0,0,2.22-1,.5.5,0,0,0-.51-.87,7.46,7.46,0,0,1-1,.55.74.74,0,0,1-.24.11c.06,0,.07,0,0,0l-.07,0-.14.06a4.27,4.27,0,0,1-.54.18.5.5,0,0,0,.27,1Z" transform="translate(-670.35 -464.35)"/><path class="cls-9" d="M748,567.19l3.73-.67a.5.5,0,0,0,.35-.62.52.52,0,0,0-.62-.35l-3.73.68a.5.5,0,0,0-.35.61.52.52,0,0,0,.62.35Z" transform="translate(-670.35 -464.35)"/><path class="cls-9" d="M763.62,531.08l3.68-10.27-1-.26-3.76,10.9c-.21.61.75.87,1,.26l3.76-10.9c.21-.61-.75-.86-1-.26l-3.69,10.27c-.22.6.75.86,1,.26Z" transform="translate(-670.35 -464.35)"/><path class="cls-9" d="M763.57,531.23a55.8,55.8,0,0,0-8-7.31l-.71.71,6.28,4.93c.5.39,1.21-.31.71-.71l-6.28-4.93c-.5-.39-1.21.3-.71.71a55.88,55.88,0,0,1,8,7.31c.41.49,1.12-.22.7-.71Z" transform="translate(-670.35 -464.35)"/><path class="cls-9" d="M762.93,529.89a57.58,57.58,0,0,0-3-6.7c-.3-.56-1.16-.06-.86.51a56.1,56.1,0,0,1,2.94,6.46c.22.6,1.19.34,1-.27Z" transform="translate(-670.35 -464.35)"/><path class="cls-9" d="M763.47,530.28a25.51,25.51,0,0,0,2-7.16.5.5,0,0,0-.43-.49.5.5,0,0,0-.55.36,29.06,29.06,0,0,1-2.42,4.87c-.34.55.53,1,.86.5a29.57,29.57,0,0,0,2.52-5.11l-1-.13a23.52,23.52,0,0,1-1.91,6.66.51.51,0,0,0,.18.68.5.5,0,0,0,.69-.18Z" transform="translate(-670.35 -464.35)"/><path class="cls-9" d="M763.61,527.62l-1,2.15a.51.51,0,0,0,.18.69.51.51,0,0,0,.68-.18l1-2.15a.52.52,0,0,0-.18-.69.5.5,0,0,0-.68.18Z" transform="translate(-670.35 -464.35)"/><path class="cls-9" d="M762.89,528.11l-.53,1.43a.51.51,0,0,0,0,.38.53.53,0,0,0,.3.23.5.5,0,0,0,.38,0,.5.5,0,0,0,.23-.3l.53-1.42a.5.5,0,0,0-.73-.56.55.55,0,0,0-.23.29Z" transform="translate(-670.35 -464.35)"/><path class="cls-9" d="M763.18,530.1a20.25,20.25,0,0,1,4.12,2l.38-.91a32.91,32.91,0,0,1-5.24-1.48.49.49,0,0,0-.61.34.51.51,0,0,0,.35.62,31.62,31.62,0,0,0,5.24,1.48.5.5,0,0,0,.38-.91,20.66,20.66,0,0,0-4.35-2.07c-.61-.21-.88.75-.27,1Z" transform="translate(-670.35 -464.35)"/><path class="cls-9" d="M764.14,530.8l4.62-2.31a.5.5,0,0,0,.18-.68.51.51,0,0,0-.69-.18l-4.61,2.31a.5.5,0,1,0,.5.86Z" transform="translate(-670.35 -464.35)"/><path class="cls-9" d="M762.9,529.21c-1,1.39-2.12,2.72-3.26,4a.51.51,0,0,0,0,.71.5.5,0,0,0,.7,0c1.21-1.35,2.35-2.76,3.42-4.21a.5.5,0,1,0-.86-.51Z" transform="translate(-670.35 -464.35)"/><path class="cls-9" d="M762.57,530.43l-.89,3.91a.5.5,0,0,0,1,.26l.88-3.91a.5.5,0,0,0-.35-.61.5.5,0,0,0-.61.35Z" transform="translate(-670.35 -464.35)"/><path class="cls-9" d="M763.3,547.33l4.53-9.62c.27-.58-.59-1.09-.87-.51l-4.52,9.63c-.28.58.59,1.09.86.5Z" transform="translate(-670.35 -464.35)"/><path class="cls-9" d="M764.74,543.38l4.42,3.47.6-.78L765,543.34a.5.5,0,0,0-.5.86l4.78,2.73a.5.5,0,0,0,.64-.13.48.48,0,0,0,0-.65l-4.42-3.47a.5.5,0,0,0-.7,0,.48.48,0,0,0,0,.7Z" transform="translate(-670.35 -464.35)"/><path class="cls-9" d="M765.49,543.67a9.07,9.07,0,0,0,3.46-.59.5.5,0,0,0-.14-1c-1.11,0-2.22,0-3.33,0a.5.5,0,0,0-.5.5.51.51,0,0,0,.5.5c1.11,0,2.22,0,3.33,0l-.13-1a8.32,8.32,0,0,1-3.19.55.51.51,0,0,0-.5.5.5.5,0,0,0,.5.5Z" transform="translate(-670.35 -464.35)"/><path class="cls-9" d="M765.56,543.61l-3.68-1.73-.51.86,3.37,1.49a.51.51,0,0,0,.68-.18.5.5,0,0,0-.18-.69l-3.36-1.48a.5.5,0,1,0-.51.86l3.69,1.74a.52.52,0,0,0,.68-.18.51.51,0,0,0-.18-.69Z" transform="translate(-670.35 -464.35)"/><path class="cls-9" d="M764.81,542.23a27.14,27.14,0,0,1-3.12-3.89l-.78.6c1.07,1,2.09,2.13,3.07,3.25a.5.5,0,0,0,.71,0,.52.52,0,0,0,0-.71c-1-1.12-2-2.21-3.08-3.24-.39-.39-1.1.11-.78.6a27.56,27.56,0,0,0,3.28,4.1c.45.46,1.15-.24.7-.71Z" transform="translate(-670.35 -464.35)"/><path class="cls-9" d="M762.71,560.41a28.22,28.22,0,0,1-1.59-3.92l-.92.39a15.8,15.8,0,0,1,1.65,2.84.51.51,0,0,0,.69.18.51.51,0,0,0,.18-.68,16.19,16.19,0,0,0-1.66-2.85.5.5,0,0,0-.91.39,32.51,32.51,0,0,0,1.69,4.15.51.51,0,0,0,.69.18.5.5,0,0,0,.18-.68Z" transform="translate(-670.35 -464.35)"/><path class="cls-9" d="M762.66,560.26c1-.68,1.82-1.47,2.72-2.23l2.75-2.33-.7-.71a26.65,26.65,0,0,1-2.88,3,12.91,12.91,0,0,1-1.64,1.22c-.27.16-.64.29-.81.56a.58.58,0,0,0,.31.91c.63.14.9-.82.27-1h0l.3.23,0,0,.07.25c-.17.2-.2.27-.09.2l.08,0,.2-.11.39-.24c.25-.16.5-.33.74-.51a16.81,16.81,0,0,0,1.38-1.15,30.39,30.39,0,0,0,2.44-2.64.5.5,0,0,0-.7-.71l-2.68,2.26c-.85.73-1.68,1.49-2.59,2.14a.52.52,0,0,0-.18.69.49.49,0,0,0,.68.18Z" transform="translate(-670.35 -464.35)"/><path class="cls-9" d="M762.62,560.42l1.26,3.18.91-.39-2.06-3.41a.5.5,0,0,0-.68-.18.51.51,0,0,0-.18.69l2.06,3.41a.5.5,0,0,0,.91-.39l-1.25-3.17a.52.52,0,0,0-.62-.35.5.5,0,0,0-.35.61Z" transform="translate(-670.35 -464.35)"/><path class="cls-9" d="M763.66,560.36l3.11.13v-1l-3.71.13a.5.5,0,0,0,0,1l3.71-.13a.5.5,0,0,0,0-1l-3.11-.13a.5.5,0,0,0,0,1Z" transform="translate(-670.35 -464.35)"/><path class="cls-9" d="M763.7,559.25l-1.58-8.32-1,.26,2.66,6.95c.22.59,1.19.34,1-.27l-2.66-6.94a.5.5,0,0,0-1,.26l1.57,8.32c.12.63,1.09.37,1-.26Z" transform="translate(-670.35 -464.35)"/><path class="cls-9" d="M762.69,557.05l.33,1.78a.5.5,0,0,0,.61.35.52.52,0,0,0,.35-.62l-.32-1.77a.51.51,0,0,0-.62-.35.52.52,0,0,0-.35.61Z" transform="translate(-670.35 -464.35)"/><path class="cls-9" d="M762.13,559.86a26,26,0,0,0-2.76,2,.49.49,0,0,0-.11.55.51.51,0,0,0,.46.31,5.85,5.85,0,0,0,3.31-1.23.5.5,0,1,0-.5-.86,11,11,0,0,1-1.42.8l-.07,0h0l-.2.08-.37.11-.18,0c-.06,0-.07,0,0,0h-.52l.35.85a25.07,25.07,0,0,1,2.56-1.82.5.5,0,0,0-.5-.86Z" transform="translate(-670.35 -464.35)"/><path class="cls-9" d="M758.68,567.14a.19.19,0,0,1,.05.1c0,.07,0,.08,0,0l-1,.14,1,2.64.83-.49-1.73-1.88a.5.5,0,0,0-.7,0,.51.51,0,0,0,0,.71l1.72,1.88a.53.53,0,0,0,.61.08.51.51,0,0,0,.23-.57l-.94-2.64a.52.52,0,0,0-.55-.36.5.5,0,0,0-.43.49.73.73,0,0,0,.23.59.5.5,0,0,0,.7-.71Z" transform="translate(-670.35 -464.35)"/><path class="cls-9" d="M758.18,567.91l-.53-4.18-.93.25c.5,1.13,1,2.26,1.45,3.4a.52.52,0,0,0,.62.35.5.5,0,0,0,.34-.62c-.49-1.22-1-2.43-1.55-3.63a.5.5,0,0,0-.93.25l.53,4.18a.5.5,0,0,0,1,0Z" transform="translate(-670.35 -464.35)"/><path class="cls-9" d="M758.58,567.66a9.34,9.34,0,0,0,3.68-.3.5.5,0,0,0-.27-1,8.36,8.36,0,0,1-3.41.27c-.27,0-.5.25-.5.5a.51.51,0,0,0,.5.5Z" transform="translate(-670.35 -464.35)"/><path class="cls-9" d="M757.91,567.29a4.7,4.7,0,0,0-1.34.27.51.51,0,0,0-.29.23.5.5,0,0,0,.56.74,4,4,0,0,1,.91-.23l-.13,0a1.43,1.43,0,0,1,.29,0,.51.51,0,0,0,.35-.15.5.5,0,0,0,0-.71.5.5,0,0,0-.35-.14Z" transform="translate(-670.35 -464.35)"/><path class="cls-9" d="M756.3,510.54l-1,4.15a.5.5,0,0,0,1,.27c.44-1.27.93-2.52,1.47-3.74a.52.52,0,0,0-.18-.69.5.5,0,0,0-.68.18c-.58,1.31-1.1,2.63-1.57,4l1,.27,1-4.16a.5.5,0,0,0-1-.26Z" transform="translate(-670.35 -464.35)"/><path class="cls-9" d="M757.22,510.86l4.51-.73-.27-1c-1.21.5-2.44.95-3.68,1.35-.61.19-.35,1.16.27,1,1.24-.4,2.47-.85,3.68-1.34a.5.5,0,0,0-.27-1l-4.51.74a.5.5,0,1,0,.27,1Z" transform="translate(-670.35 -464.35)"/><path class="cls-9" d="M757.89,510.87V507a.5.5,0,0,0-1,0v3.92a.5.5,0,0,0,1,0Z" transform="translate(-670.35 -464.35)"/><path class="cls-9" d="M757.53,510.22l-4.17-4.34-.71.7a14.27,14.27,0,0,1,1.71,2.1c.56.81,1.1,1.62,1.65,2.42a.5.5,0,0,0,.87-.5c-.57-.83-1.13-1.67-1.7-2.49a15,15,0,0,0-1.82-2.23.5.5,0,0,0-.71.7l4.17,4.35c.44.47,1.15-.24.71-.71Z" transform="translate(-670.35 -464.35)"/><path class="cls-9" d="M756.67,510.6l2.25,3.11a.53.53,0,0,0,.69.18.52.52,0,0,0,.18-.69l-2.26-3.11a.5.5,0,1,0-.86.51Z" transform="translate(-670.35 -464.35)"/><path class="cls-9" d="M757,510.42l-1.66.34a.5.5,0,0,0-.35.61.51.51,0,0,0,.61.35l1.67-.34a.5.5,0,0,0,.35-.62.51.51,0,0,0-.62-.34Z" transform="translate(-670.35 -464.35)"/><path class="cls-9" d="M764.65,516.3l1.66-4.21-1-.27a30.17,30.17,0,0,0-1.11,4.5.51.51,0,0,0,.35.61.49.49,0,0,0,.61-.35,30.39,30.39,0,0,1,1.12-4.49.5.5,0,1,0-1-.27L763.69,516a.5.5,0,1,0,1,.27Z" transform="translate(-670.35 -464.35)"/><path class="cls-9" d="M764.52,517c2.77,0,5.37-1.38,8.15-1.12l-.13-1c-1.15.39-2.31.76-3.47,1.12-.56.18-1.11.35-1.67.51l-.91.27-.46.13-.15.05c-.21,0-.21.08,0,.22v.5l0,0a.5.5,0,0,0-.18-.68.5.5,0,0,0-.68.18c-.3.7.39,1,1,.83.77-.19,1.53-.44,2.28-.67,1.52-.45,3-.94,4.53-1.45a.5.5,0,0,0-.13-1c-2.79-.26-5.38,1.17-8.15,1.12a.5.5,0,0,0,0,1Z" transform="translate(-670.35 -464.35)"/><path class="cls-9" d="M765.24,517l.29,0-.13,0a2.23,2.23,0,0,1,.56.16l-.12-.05.16.07a.51.51,0,0,0,.69-.18.5.5,0,0,0,0-.38.53.53,0,0,0-.23-.3,3,3,0,0,0-1.27-.32.53.53,0,0,0-.36.15.52.52,0,0,0-.14.35.51.51,0,0,0,.5.5Z" transform="translate(-670.35 -464.35)"/><path class="cls-9" d="M764.34,516.06q-.47.77-1,1.5c-.33.48-.68,1-1,1.37a.52.52,0,0,0,0,.71.51.51,0,0,0,.71,0,29.46,29.46,0,0,0,2.13-3.07.51.51,0,0,0-.18-.69.51.51,0,0,0-.68.18Z" transform="translate(-670.35 -464.35)"/><path class="cls-9" d="M762.82,519.39a13.46,13.46,0,0,0,3-2.29.5.5,0,0,0-.71-.7l-.64.61c-.11.1-.22.2-.34.29l-.18.15-.07.06-.07,0,0,0-.08.06-.19.13c-.12.09-.24.18-.37.26s-.51.32-.77.47a.51.51,0,0,0-.18.69.51.51,0,0,0,.68.18Z" transform="translate(-670.35 -464.35)"/><path class="cls-9" d="M764.24,517.07l-.14,3.51a.5.5,0,0,0,1,0l.14-3.51a.5.5,0,0,0-.5-.5.51.51,0,0,0-.5.5Z" transform="translate(-670.35 -464.35)"/><path class="cls-9" d="M764.57,517.92a14.06,14.06,0,0,0,4.55,2.26.5.5,0,0,0,.26-1,13.23,13.23,0,0,1-4.31-2.16.51.51,0,0,0-.68.18.52.52,0,0,0,.18.69Z" transform="translate(-670.35 -464.35)"/><path class="cls-9" d="M764.42,516.66a12.83,12.83,0,0,0-4-.48.5.5,0,0,0,0,1,12,12,0,0,1,3.77.44.5.5,0,0,0,.27-1Z" transform="translate(-670.35 -464.35)"/><path class="cls-9" d="M773.34,527.76l1.32-5.26c.16-.62-.81-.89-1-.26l-1.32,5.26a.5.5,0,0,0,1,.26Z" transform="translate(-670.35 -464.35)"/><path class="cls-9" d="M772.94,527.43l-3.63-1.58a.52.52,0,0,0-.68.18.51.51,0,0,0,.18.69l3.63,1.58a.5.5,0,0,0,.5-.87Z" transform="translate(-670.35 -464.35)"/><path class="cls-9" d="M772.45,527.4a26,26,0,0,0-2.84,3.36.5.5,0,1,0,.86.51,24.43,24.43,0,0,1,2.69-3.16.5.5,0,1,0-.71-.71Z" transform="translate(-670.35 -464.35)"/><path class="cls-9" d="M772.67,528.6l3.27,1a.5.5,0,0,0,.59-.29.5.5,0,0,0-.21-.62,12.39,12.39,0,0,1-2.87-2.57.5.5,0,0,0-.71,0,.51.51,0,0,0,0,.71,13.11,13.11,0,0,0,3.08,2.72l.38-.91-3.26-1a.51.51,0,0,0-.62.35.5.5,0,0,0,.35.61Z" transform="translate(-670.35 -464.35)"/><path class="cls-9" d="M772.91,527.26l-.3.3a.48.48,0,0,0-.1.17.47.47,0,0,0,0,.38.44.44,0,0,0,.1.16l.11.08a.43.43,0,0,0,.25.07l.13,0a.45.45,0,0,0,.22-.13l.3-.3a.36.36,0,0,0,.11-.16.47.47,0,0,0,0-.38.39.39,0,0,0-.11-.17l-.1-.07a.45.45,0,0,0-.25-.07l-.13,0a.51.51,0,0,0-.23.12Z" transform="translate(-670.35 -464.35)"/><path class="cls-9" d="M772.9,527.77c-.44-1.64-.95-3.26-1.51-4.86l-.91.38,2,4.08a.5.5,0,0,0,.87-.5l-2-4.08c-.24-.51-1.1-.15-.91.38q.84,2.42,1.5,4.87a.5.5,0,0,0,1-.27Z" transform="translate(-670.35 -464.35)"/><path class="cls-9" d="M772.77,528.22v.6a.5.5,0,0,0,.14.35.39.39,0,0,0,.17.11.41.41,0,0,0,.19,0,.51.51,0,0,0,.35-.15.53.53,0,0,0,.15-.35v-.6a.55.55,0,0,0-.15-.36.44.44,0,0,0-.16-.1.41.41,0,0,0-.19,0,.54.54,0,0,0-.36.14.57.57,0,0,0-.14.36Z" transform="translate(-670.35 -464.35)"/><path class="cls-9" d="M775.74,539.83l4.11-5.55-.86-.51c-.64.87-1.24,1.76-1.8,2.68-.27.45-.54.91-.8,1.37l-.39.72c-.06.12-.12.24-.19.36l-.09.19c0,.08-.05.09,0,0l.25-.07h-.07l.25.07,0,0,.18.17v0l.06.25,0,.15-.18.18,0,0-.25.07h0l-.35-.15,0,0a.51.51,0,0,0,.71,0,.52.52,0,0,0,0-.71.55.55,0,0,0-.93.24.58.58,0,0,0,.51.77c.46,0,.66-.38.84-.73s.37-.69.56-1a41.84,41.84,0,0,1,2.57-4,.51.51,0,0,0-.18-.69.5.5,0,0,0-.68.18l-4.12,5.55a.5.5,0,0,0,.18.68.52.52,0,0,0,.69-.17Z" transform="translate(-670.35 -464.35)"/><path class="cls-9" d="M775.87,539.57l-3.71-4.63-.71.7a15.71,15.71,0,0,1,3.4,4.72.49.49,0,0,0,.68.18.5.5,0,0,0,.18-.68,16.33,16.33,0,0,0-3.55-4.92.5.5,0,1,0-.71.7l3.71,4.63a.5.5,0,1,0,.71-.7Z" transform="translate(-670.35 -464.35)"/><path class="cls-9" d="M774.85,539.54l-2.27,1.94a.49.49,0,0,0,0,.7.5.5,0,0,0,.71,0l2.26-1.93a.5.5,0,0,0,0-.71.51.51,0,0,0-.7,0Z" transform="translate(-670.35 -464.35)"/><path class="cls-9" d="M773.22,542.29l3.33-2.35a.5.5,0,0,0,.18-.68.5.5,0,0,0-.68-.18l-3.34,2.35a.52.52,0,0,0-.18.68.51.51,0,0,0,.69.18Z" transform="translate(-670.35 -464.35)"/><path class="cls-9" d="M775.15,540l1.28,1.3.31.31a.62.62,0,0,0,.82.07.55.55,0,0,0,.08-.78.53.53,0,0,0-.42-.21.56.56,0,0,0-.46.27.5.5,0,0,0,.18.68.51.51,0,0,0,.69-.18h0l-.17.18-.11,0h-.26a.36.36,0,0,1-.28-.25s0-.06,0,0l0-.13h0l0-.13,0-.1.18-.18.08,0,.13,0h0l.13,0c-.06,0,0,0,0,0s.08.07,0,0l-.11-.11-.21-.21-.42-.42-.83-.84a.5.5,0,0,0-.7.71Z" transform="translate(-670.35 -464.35)"/><path class="cls-9" d="M776.85,540.48l-.28-.1.12,0a2.56,2.56,0,0,1-.58-.33l.1.07a2.37,2.37,0,0,1-.48-.47l.08.1-.18-.27a.5.5,0,0,0-.68-.18.5.5,0,0,0-.18.68,3.08,3.08,0,0,0,1.82,1.42.5.5,0,0,0,.61-.35.52.52,0,0,0-.35-.62Z" transform="translate(-670.35 -464.35)"/><path class="cls-9" d="M775.83,540l6-.34c.64,0,.65-1,0-1a33,33,0,0,1-5.53-.31.52.52,0,0,0-.62.35.52.52,0,0,0,.35.62,35.22,35.22,0,0,0,5.8.34v-1l-6,.34c-.64,0-.65,1,0,1Z" transform="translate(-670.35 -464.35)"/><path class="cls-9" d="M775.36,539.92l.36-4-1,.13.52,3.09a.51.51,0,0,0,.62.35.52.52,0,0,0,.35-.62l-.53-3.08a.49.49,0,0,0-.55-.36.5.5,0,0,0-.43.49l-.36,4a.51.51,0,0,0,.5.5.51.51,0,0,0,.5-.5Z" transform="translate(-670.35 -464.35)"/><path class="cls-9" d="M773.84,553.25,771,546.41l-.84.49a22.45,22.45,0,0,1,3.25,4.67c.3.57,1.17.07.87-.5a24,24,0,0,0-3.41-4.88c-.32-.35-1,0-.84.49l2.82,6.84a.53.53,0,0,0,.62.35.52.52,0,0,0,.35-.62Z" transform="translate(-670.35 -464.35)"/><path class="cls-9" d="M772.86,551.41l.31.7a.49.49,0,0,0,.62.2.5.5,0,0,0,.29-.59,11.49,11.49,0,0,0-1.31-3,.5.5,0,0,0-.86.5,12.19,12.19,0,0,1,.72,1.39v0l0,.1.06.15.15.39c.08.24.16.49.23.75l.91-.39-.31-.69a.49.49,0,0,0-.68-.18.5.5,0,0,0-.18.68Z" transform="translate(-670.35 -464.35)"/><path class="cls-9" d="M773.69,552.07a35.41,35.41,0,0,0,5.28-4.73c.37-.4-.11-1.12-.6-.79a37.25,37.25,0,0,0-5.5,4.52.5.5,0,0,0,.71.71,35.65,35.65,0,0,1,5.29-4.36l-.6-.79a34.05,34.05,0,0,1-5.09,4.58.5.5,0,1,0,.51.86Z" transform="translate(-670.35 -464.35)"/><path class="cls-9" d="M774,551.21l2.2,1.88.49-.84a15.25,15.25,0,0,1-3.19-1.11.51.51,0,0,0-.69.18.51.51,0,0,0,.18.68,16.89,16.89,0,0,0,3.43,1.22A.53.53,0,0,0,777,553a.51.51,0,0,0-.08-.61l-2.2-1.87a.51.51,0,0,0-.71,0,.5.5,0,0,0,0,.7Z" transform="translate(-670.35 -464.35)"/><path class="cls-9" d="M773.61,551.33l-.78,4.91,1,.14-.07-4.61a.5.5,0,0,0-1,0l.07,4.61a.5.5,0,0,0,.43.49.5.5,0,0,0,.55-.36l.77-4.92a.5.5,0,1,0-1-.26Z" transform="translate(-670.35 -464.35)"/><path class="cls-9" d="M773.14,551.89A22.9,22.9,0,0,0,769,553.6a.5.5,0,0,0,.26.93,21.31,21.31,0,0,0,4.87-.95c.61-.2.35-1.16-.26-1a20.26,20.26,0,0,1-4.61.92l.25.93a21.9,21.9,0,0,1,3.88-1.61c.62-.18.35-1.15-.26-1Z" transform="translate(-670.35 -464.35)"/><path class="cls-9" d="M768.75,563l.41-5.63-1,.14.57,4a.5.5,0,0,0,.61.35.51.51,0,0,0,.35-.61l-.57-4a.49.49,0,0,0-.54-.36.51.51,0,0,0-.44.49l-.41,5.63c0,.64,1,.64,1,0Z" transform="translate(-670.35 -464.35)"/><path class="cls-9" d="M769.22,562.36l3.25-.91a.5.5,0,0,0-.27-1,12,12,0,0,0-3.53,1.51.5.5,0,0,0,.51.87,10.94,10.94,0,0,1,3.29-1.42l-.27-1-3.25.9a.52.52,0,0,0-.35.62.51.51,0,0,0,.62.35Z" transform="translate(-670.35 -464.35)"/><path class="cls-9" d="M768.45,562.87l-.2,2.93,1-.13A12.44,12.44,0,0,1,769,562a.5.5,0,0,0-1,0,13.15,13.15,0,0,0,.28,4,.5.5,0,0,0,.55.36.51.51,0,0,0,.43-.49l.2-2.93a.5.5,0,0,0-.5-.5.51.51,0,0,0-.5.5Z" transform="translate(-670.35 -464.35)"/><path class="cls-9" d="M768.63,561.74a21.78,21.78,0,0,0-3.1.83.51.51,0,0,0-.35.62.5.5,0,0,0,.61.35c.5-.11,1-.21,1.52-.3l1.45-.2a.51.51,0,0,0,.5-.5c0-.24-.22-.53-.5-.5a32.44,32.44,0,0,0-3.23.53l.26,1a20.88,20.88,0,0,1,3.1-.84.49.49,0,0,0,.35-.61.51.51,0,0,0-.61-.35Z" transform="translate(-670.35 -464.35)"/><path class="cls-9" d="M768.43,561.93a7.39,7.39,0,0,0-2.17,3.82.5.5,0,1,0,1,.27,6.52,6.52,0,0,1,1.91-3.38.5.5,0,0,0,0-.71.49.49,0,0,0-.7,0Z" transform="translate(-670.35 -464.35)"/><path class="cls-9" d="M775,559.73l-.63-2.09a.5.5,0,1,0-1,.27L774,560a.5.5,0,0,0,1-.27Z" transform="translate(-670.35 -464.35)"/><path class="cls-9" d="M774.62,560.38a10.4,10.4,0,0,0,2.54-.44.5.5,0,0,0,.35-.61.5.5,0,0,0-.61-.35,9.93,9.93,0,0,1-1.17.28l-.28,0-.09,0s.06,0,0,0h-.16c-.2,0-.4,0-.6,0a.51.51,0,0,0-.5.5.5.5,0,0,0,.5.5Z" transform="translate(-670.35 -464.35)"/><path class="cls-9" d="M773.67,560.32V562a.5.5,0,0,0,1,0v-1.65a.5.5,0,0,0-1,0Z" transform="translate(-670.35 -464.35)"/><path class="cls-9" d="M778.61,554.08a5.14,5.14,0,0,1-.4-.41c-.06-.07-.13-.14-.19-.22l0-.05s0,.08,0,0l-.09-.12a6,6,0,0,1-.56-1,.47.47,0,0,0-.3-.23.5.5,0,0,0-.38,0,.5.5,0,0,0-.23.3.59.59,0,0,0,0,.39,5.85,5.85,0,0,0,1.41,2,.52.52,0,0,0,.71,0,.51.51,0,0,0,0-.71Z" transform="translate(-670.35 -464.35)"/><path class="cls-9" d="M777.92,554.56l2.25-.17a.5.5,0,0,0,0-1l-2.25.17a.51.51,0,0,0-.5.5.51.51,0,0,0,.5.5Z" transform="translate(-670.35 -464.35)"/><path class="cls-9" d="M777.49,554.87a.61.61,0,0,1,.07.14c0-.12,0,0,0,0l.09.25c.05.16.09.33.13.5a2,2,0,0,1,0,.24c0,.06,0,.05,0,0v.08a.37.37,0,0,1,0,.11,4.7,4.7,0,0,1,0,.53.5.5,0,0,0,.5.5.51.51,0,0,0,.5-.5,5.13,5.13,0,0,0-.51-2.35.5.5,0,0,0-.69-.18.52.52,0,0,0-.18.68Z" transform="translate(-670.35 -464.35)"/><path class="cls-9" d="M777.42,554.12l-1.34,1.07a.48.48,0,0,0,0,.7.49.49,0,0,0,.35.15l.14,0a.46.46,0,0,0,.22-.13l1.33-1.07a.45.45,0,0,0,.15-.35.51.51,0,0,0-.5-.5l-.13,0a.45.45,0,0,0-.22.13Z" transform="translate(-670.35 -464.35)"/><path class="cls-9" d="M779,554.29l.71-1.52a.56.56,0,0,0,.06-.38.54.54,0,0,0-.23-.3.5.5,0,0,0-.69.18l-.72,1.51a.65.65,0,0,0-.05.39.62.62,0,0,0,.23.3.52.52,0,0,0,.69-.18Z" transform="translate(-670.35 -464.35)"/><path class="cls-9" d="M781.41,541.57l-2.14,1.17-.52.29a.74.74,0,0,0-.46.54.56.56,0,1,0,1.11.11.5.5,0,0,0-.5-.5.51.51,0,0,0-.5.5v0l.14-.36v0l.22-.13.39.1.12.22,0,.08-.07.25a.26.26,0,0,1-.09.09l.08-.05.18-.1.37-.2.71-.39,1.45-.8a.5.5,0,0,0,.18-.68.5.5,0,0,0-.68-.18Z" transform="translate(-670.35 -464.35)"/><path class="cls-9" d="M781.63,542.49l-1.27,2.29a.5.5,0,0,0,.87.51l1.27-2.3a.51.51,0,0,0-.18-.68.51.51,0,0,0-.69.18Z" transform="translate(-670.35 -464.35)"/><path class="cls-9" d="M781.91,542.83q.6.69,1.26,1.32c.29.26.62.65,1.06.52a.58.58,0,0,0,.42-.59.62.62,0,0,0-.18-.4.55.55,0,0,0-.52-.13.47.47,0,0,0-.3.23.46.46,0,0,0,0,.38.5.5,0,0,0,.61.35l-.1,0-.25-.07-.15-.15a.31.31,0,0,1-.05-.26.4.4,0,0,1,.49-.34l0,0c.11.07,0,0,0,0l-.24-.22c-.16-.15-.32-.29-.47-.45-.31-.3-.6-.62-.88-1a.5.5,0,0,0-.71,0,.51.51,0,0,0,0,.71Z" transform="translate(-670.35 -464.35)"/><path class="cls-9" d="M782.41,542.8l3.69-2.63a.51.51,0,0,0,.18-.68.5.5,0,0,0-.68-.18l-3.7,2.63a.51.51,0,0,0-.18.68.51.51,0,0,0,.69.18Z" transform="translate(-670.35 -464.35)"/><path class="cls-9" d="M782.3,542.49a7.82,7.82,0,0,0-.81-2.07.5.5,0,0,0-.68-.18.51.51,0,0,0-.18.69,4.16,4.16,0,0,1,.24.47c0,.07.07.15.11.23s0-.09,0,0a.69.69,0,0,1,0,.13,5.82,5.82,0,0,1,.3,1,.51.51,0,0,0,.62.35.51.51,0,0,0,.35-.61Z" transform="translate(-670.35 -464.35)"/><path class="cls-9" d="M779.54,527.93a10.72,10.72,0,0,0-1.73,3.42.5.5,0,0,0,.91.38l.21-.28a.5.5,0,0,0-.18-.68.5.5,0,0,0-.68.18l-.21.28.91.38a10.21,10.21,0,0,1,1.63-3.18.49.49,0,0,0-.18-.68.51.51,0,0,0-.68.18Z" transform="translate(-670.35 -464.35)"/><path class="cls-9" d="M779.44,528.92a13.84,13.84,0,0,1,1.51,2.54.51.51,0,0,0,.69.18.52.52,0,0,0,.18-.68,13.74,13.74,0,0,0-1.52-2.55.51.51,0,0,0-.68-.17.5.5,0,0,0-.18.68Z" transform="translate(-670.35 -464.35)"/><path class="cls-9" d="M780.14,529.29a18.53,18.53,0,0,0,4.46-2.78.5.5,0,0,0-.71-.71,17.3,17.3,0,0,1-4.26,2.63.51.51,0,0,0-.18.68.51.51,0,0,0,.69.18Z" transform="translate(-670.35 -464.35)"/><path class="cls-9" d="M780.11,529.11,781.4,521l-1-.13v7.31a.5.5,0,0,0,1,0v-7.31c0-.55-.89-.71-1-.13l-1.28,8.07c-.1.62.86.9,1,.26Z" transform="translate(-670.35 -464.35)"/><path class="cls-9" d="M780.18,527.83a13.25,13.25,0,0,1-3.19-2.18l-.6.79,3.22,2.22a.51.51,0,0,0,.69-.18.53.53,0,0,0-.18-.69l-3.23-2.22a.5.5,0,0,0-.64.13.5.5,0,0,0,0,.66,14.54,14.54,0,0,0,3.38,2.33.53.53,0,0,0,.69-.18.51.51,0,0,0-.18-.68Z" transform="translate(-670.35 -464.35)"/><path class="cls-9" d="M776,520.11l1-2.83a.5.5,0,0,0-1-.27,9.57,9.57,0,0,0-.59,3l.63-.48a13,13,0,0,1-2.52-.65l-.26,1a19.61,19.61,0,0,0,4,1,.52.52,0,0,0,.62-.35.51.51,0,0,0-.35-.62,19.85,19.85,0,0,1-4-1,.49.49,0,0,0-.61.35.5.5,0,0,0,.35.61,12,12,0,0,0,2.51.65.52.52,0,0,0,.64-.48,8.78,8.78,0,0,1,.55-2.72l-1-.27-1,2.84a.5.5,0,0,0,1,.26Z" transform="translate(-670.35 -464.35)"/><path class="cls-9" d="M739.55,563.72a10.46,10.46,0,0,1,2.56-3.44.5.5,0,0,0,0-.71.5.5,0,0,0-.7,0,11,11,0,0,0-2.72,3.65.51.51,0,0,0,.18.68.49.49,0,0,0,.68-.18Z" transform="translate(-670.35 -464.35)"/><path class="cls-9" d="M738.45,563.31a40.81,40.81,0,0,1-5.57-5.81l-.7.71a57.36,57.36,0,0,1,5.4,5.73.51.51,0,0,0,.84-.22,32.51,32.51,0,0,1,2.22-7.62l-.91-.39L738.57,562c-.15.82-.42,1.61.22,2.28s1.51,1.29,2.24,1.92l.49-.83A13.11,13.11,0,0,1,737,562.8a.52.52,0,0,0-.79.1l-1.68,4c-.25.58.54,1.09.86.51a19.51,19.51,0,0,1,2.88-3.92c.45-.46-.26-1.17-.7-.7a19.7,19.7,0,0,0-3,4.11l.86.51,1.68-4-.78.1a14.24,14.24,0,0,0,5,2.84.5.5,0,0,0,.49-.83l-1.9-1.62a.91.91,0,0,1-.41-1.06c.08-.48.18-1,.27-1.44l1-5.42c.1-.51-.67-1-.91-.39a33.19,33.19,0,0,0-2.32,7.86l.83-.22a58.57,58.57,0,0,0-5.41-5.73c-.48-.45-1.09.21-.7.71a40.27,40.27,0,0,0,5.57,5.81c.48.41,1.19-.29.7-.71Z" transform="translate(-670.35 -464.35)"/><path class="cls-9" d="M736.06,544.47l-4.6-4.15-.48.83a10.9,10.9,0,0,1,4,2.23.51.51,0,0,0,.71,0,.5.5,0,0,0,0-.7,11.68,11.68,0,0,0-4.47-2.49.5.5,0,0,0-.48.84l4.59,4.15c.48.43,1.19-.28.71-.71Z" transform="translate(-670.35 -464.35)"/><path class="cls-9" d="M736.9,543.31l4.14-6.12-.91-.39a37.61,37.61,0,0,1-3.71,6.76.5.5,0,0,0,.18.68,17.66,17.66,0,0,1,3.57,3.39l.61-.79a47.36,47.36,0,0,1-5.66-3.25c-.53-.35-1,.51-.5.87a49.48,49.48,0,0,0,5.65,3.25.51.51,0,0,0,.61-.79,18.35,18.35,0,0,0-3.77-3.54l.18.69a38.84,38.84,0,0,0,3.8-7c.23-.55-.61-.83-.91-.39L736,542.81c-.36.53.51,1,.87.5Z" transform="translate(-670.35 -464.35)"/><path class="cls-9" d="M735.3,543.25a16.82,16.82,0,0,0-3.82,6.8c-.13.45.51.9.83.49l4.38-5.6a.51.51,0,0,0,0-.71.49.49,0,0,0-.7,0l-4.38,5.6.83.49A15.8,15.8,0,0,1,736,544c.43-.47-.27-1.18-.71-.71Z" transform="translate(-670.35 -464.35)"/><path class="cls-9" d="M735.6,544.37c.07,2.5.09,5,0,7.51h1a25.48,25.48,0,0,1,.64-6.8c.14-.63-.82-.9-1-.27a26.27,26.27,0,0,0-.67,7.07.5.5,0,0,0,1,0c0-2.5,0-5,0-7.51,0-.64-1-.65-1,0Z" transform="translate(-670.35 -464.35)"/><path class="cls-9" d="M735.17,534a55.16,55.16,0,0,0-5-6.55l-.7.71,4.78,4.77a.5.5,0,0,0,.71-.7l-4.79-4.78c-.45-.46-1.13.23-.7.71a52.73,52.73,0,0,1,4.88,6.35c.35.53,1.22,0,.87-.51Z" transform="translate(-670.35 -464.35)"/><path class="cls-9" d="M735.12,532.5a123.32,123.32,0,0,0-8-15.45l-.86.51a71,71,0,0,1,7.63,14.38c.23.59,1.2.33,1-.27a71.8,71.8,0,0,0-7.74-14.62c-.36-.52-1.2,0-.86.51a124,124,0,0,1,8,15.45c.25.59,1.11.08.86-.51Z" transform="translate(-670.35 -464.35)"/><path class="cls-9" d="M735.45,531.49a63.2,63.2,0,0,0,.48-9.12.5.5,0,0,0-1,0,46.59,46.59,0,0,0-.29,9.37c0,.64,1,.64,1,0a46.59,46.59,0,0,1,.29-9.37h-1a63.2,63.2,0,0,1-.48,9.12c-.08.63.92.63,1,0Z" transform="translate(-670.35 -464.35)"/><path class="cls-9" d="M735.38,532.45q2-3.5,3.92-7a15.13,15.13,0,0,0,2.38-6.55.5.5,0,0,0-.93-.26q-3.6,7.53-6.53,15.34c-.23.6.74.86,1,.27q2.88-7.69,6.42-15.1l-.93-.25c-.12,2.36-1.34,4.45-2.48,6.46l-3.69,6.57a.5.5,0,0,0,.87.51Z" transform="translate(-670.35 -464.35)"/><path class="cls-9" d="M735,532.09l8.24,4.26.39-.91-4.7-1.46-2.36-.73-1.08-.34-.54-.17-.37-.11c-.22-.14-.29,0-.2.29l-.29.23-.4-.25.23-.57,0,0c-.5.39,0,1.25.51.87l0,0a.52.52,0,0,0,.23-.56c-.12-.8-1.5-.49-1.17.38.16.42.64.52,1,.64l1.81.56,7,2.19a.5.5,0,0,0,.39-.91l-8.25-4.26c-.57-.3-1.08.57-.5.86Z" transform="translate(-670.35 -464.35)"/><path class="cls-9" d="M735.36,532.49a30.17,30.17,0,0,0,7.65-5.67l-.71-.71a33.12,33.12,0,0,1-7.28,6.7c-.53.36,0,1.23.51.87a34.61,34.61,0,0,0,7.48-6.86c.39-.49-.25-1.18-.71-.71a29.39,29.39,0,0,1-7.45,5.51c-.57.3-.06,1.16.51.87Z" transform="translate(-670.35 -464.35)"/><path class="cls-9" d="M736.3,534.6l2.68.59a.5.5,0,0,0,.27-1l-2.68-.6a.53.53,0,0,0-.62.35.52.52,0,0,0,.35.62Z" transform="translate(-670.35 -464.35)"/><path class="cls-9" d="M736.24,516.06l-3.13-2.75-.48.84A8.13,8.13,0,0,1,736,516a.51.51,0,0,0,.71,0,.5.5,0,0,0,0-.71,9.24,9.24,0,0,0-3.83-2.13.5.5,0,0,0-.48.83l3.13,2.75a.5.5,0,0,0,.7,0,.5.5,0,0,0,0-.71Z" transform="translate(-670.35 -464.35)"/><path class="cls-9" d="M736.79,515.77a54.28,54.28,0,0,0-2.87-10.69c-.22-.59-1.17-.35-1,.27l2.3,6.86.54,1.62c.12.38.23.85.62,1a.63.63,0,0,0,.56-1.12.52.52,0,0,0-.5,0l-.05,0c-.54.34,0,1.21.51.86l0,0h-.5l-.17-.35.23-.29-.06,0,.38,0s-.24-.81-.3-1l-.34-1-.78-2.32-1.52-4.55-1,.27A54.86,54.86,0,0,1,735.82,516c.11.64,1.07.37,1-.26Z" transform="translate(-670.35 -464.35)"/><path class="cls-9" d="M737.05,515.46q1.34-8.55,1.92-17.2c0-.65-.93-.63-1,0l-1.84,16.54c-.07.64.93.63,1,0L739,498.26h-1q-.57,8.5-1.89,16.93c-.09.63.87.9,1,.27Z" transform="translate(-670.35 -464.35)"/><path class="cls-9" d="M737.26,515.15q3.12-4.35,6.64-8.39c.42-.48-.26-1.18-.71-.71a63.11,63.11,0,0,0-7.25,9.44c-.34.55.52,1,.86.51a61.8,61.8,0,0,1,7.1-9.24l-.71-.71q-3.6,4.14-6.79,8.6c-.38.52.49,1,.86.5Z" transform="translate(-670.35 -464.35)"/><path class="cls-9" d="M736.58,515.5a21.51,21.51,0,0,0,5.1.92.51.51,0,0,0,.5-.5.51.51,0,0,0-.5-.5,36.62,36.62,0,0,1-5.48-1.08.5.5,0,0,0-.26,1,38.53,38.53,0,0,0,5.74,1.11v-1a20.27,20.27,0,0,1-4.83-.89c-.62-.19-.88.77-.27,1Z" transform="translate(-670.35 -464.35)"/><path class="cls-9" d="M737.18,514.63a35.29,35.29,0,0,0,6-4.23l-.7-.71a72.34,72.34,0,0,1-6.32,5.68.5.5,0,0,0,.71.71,73.86,73.86,0,0,0,6.31-5.68.5.5,0,0,0-.7-.71,34.5,34.5,0,0,1-5.81,4.08c-.56.31-.06,1.17.51.86Z" transform="translate(-670.35 -464.35)"/><path class="cls-9" d="M735.88,517.77l2.94,2.8c.47.45,1.11-.22.7-.71a50,50,0,0,1-3.6-5c-.35-.54-1.21,0-.87.5a51.62,51.62,0,0,0,3.77,5.16l.7-.71-2.93-2.8c-.47-.45-1.17.26-.71.71Z" transform="translate(-670.35 -464.35)"/><path class="cls-9" d="M718.51,529.77l-5.26-6.2c-.42-.5-1.09.21-.71.71l6.16,7.94c.4.51,1.1-.2.71-.7l-6.16-7.95-.71.71,5.26,6.2c.42.49,1.12-.22.71-.71Z" transform="translate(-670.35 -464.35)"/><path class="cls-9" d="M719.51,531.32c-.5-1.75-1.09-3.48-1.76-5.17-.32-.8-.65-1.59-1-2.37-.18-.4-.36-.8-.55-1.2a3.89,3.89,0,0,0-.33-.68c0-.17-.07-.21-.16-.12q-.41-.31-.06-.24c-.58-.27-1.09.59-.5.86,1,.48,2-1,.9-1.54a1,1,0,0,0-1.21.43c-.3.55.18,1.14.41,1.63a54.72,54.72,0,0,1,3.31,8.67.5.5,0,0,0,1-.27Z" transform="translate(-670.35 -464.35)"/><path class="cls-9" d="M719.5,532a11.72,11.72,0,0,0,4.14-3.42c.31-.41-.29-.94-.69-.68a21.51,21.51,0,0,0-4.16,3.45c-.43.47.27,1.18.71.71a20.55,20.55,0,0,1,4-3.3l-.69-.68A10.45,10.45,0,0,1,719,531.1a.51.51,0,0,0-.18.69.52.52,0,0,0,.68.18Z" transform="translate(-670.35 -464.35)"/><path class="cls-9" d="M719.42,530.84l2.24-15.31h-1l.19.75c.15.63,1.12.36,1-.26l-.19-.75c-.11-.45-.89-.51-1,0l-2.25,15.3c-.09.63.88.9,1,.27Z" transform="translate(-670.35 -464.35)"/><path class="cls-9" d="M719.9,530.81a42.74,42.74,0,0,0,4.5-4.91.53.53,0,0,0,0-.71.51.51,0,0,0-.71,0,42,42,0,0,1-4.5,4.92c-.47.44.24,1.14.71.7Z" transform="translate(-670.35 -464.35)"/><path class="cls-9" d="M718.93,531l3,2.51.49-.83a10.14,10.14,0,0,1-3.82-1.89.51.51,0,0,0-.71,0,.5.5,0,0,0,0,.7,11.29,11.29,0,0,0,4.26,2.15.5.5,0,0,0,.57-.23.5.5,0,0,0-.08-.6l-3-2.52a.51.51,0,0,0-.7,0,.5.5,0,0,0,0,.71Z" transform="translate(-670.35 -464.35)"/><path class="cls-9" d="M718.56,530.23a14.11,14.11,0,0,0-4.57,1.9c-.46.29-.18,1.09.39.91l5.47-1.74c.61-.2.35-1.17-.27-1l-5.47,1.75.39.91a13.34,13.34,0,0,1,4.32-1.8c.63-.13.37-1.1-.26-1Z" transform="translate(-670.35 -464.35)"/><path class="cls-9" d="M724.48,515.9l-4.69-6.85-.78.61,5.63,5.89c.45.47,1.16-.24.71-.7l-5.63-5.9c-.39-.4-1.11.13-.79.61l4.69,6.85c.36.52,1.23,0,.86-.51Z" transform="translate(-670.35 -464.35)"/><path class="cls-9" d="M725.14,516.06a14.51,14.51,0,0,0,7-1,.5.5,0,0,0,.36-.55.49.49,0,0,0-.49-.43,28.19,28.19,0,0,0-6.77,1.67c-.59.23-.33,1.2.27,1a27,27,0,0,1,6.5-1.64l-.13-1a14,14,0,0,1-6.7,1,.5.5,0,0,0-.5.5.51.51,0,0,0,.5.5Z" transform="translate(-670.35 -464.35)"/><path class="cls-9" d="M724,517.06l1.81,7.49,1-.26a70.83,70.83,0,0,1-1.72-9.48c-.06-.63-1.07-.64-1,0a72.79,72.79,0,0,0,1.75,9.74.5.5,0,0,0,1-.26l-1.81-7.5c-.15-.62-1.12-.36-1,.27Z" transform="translate(-670.35 -464.35)"/><path class="cls-9" d="M725.25,515.32a14,14,0,0,0-5.13,2,.5.5,0,0,0,.25.93,22.84,22.84,0,0,0,5.92-1,.5.5,0,0,0-.27-1,21.69,21.69,0,0,1-5.65.94l.26.93a13.36,13.36,0,0,1,4.89-1.87.52.52,0,0,0,.35-.62.52.52,0,0,0-.62-.35Z" transform="translate(-670.35 -464.35)"/><path class="cls-9" d="M724.6,516.87a6.2,6.2,0,0,1,5.16,2.44l.68-.68-5.81-3.52a.5.5,0,0,0-.51.86l5.82,3.52c.4.25,1-.27.68-.68a7.21,7.21,0,0,0-6-2.94c-.65,0-.65,1,0,1Z" transform="translate(-670.35 -464.35)"/><path class="cls-9" d="M729.1,511a37.84,37.84,0,0,0-4.4-7.4l-.79.61,5.77,6.28c.44.48,1.14-.23.71-.7l-5.77-6.29c-.38-.41-1.14.15-.79.61a37.39,37.39,0,0,1,4.41,7.4c.26.58,1.13.07.86-.51Z" transform="translate(-670.35 -464.35)"/><path class="cls-9" d="M730.54,511.39l3.32-4.81-.92-.39a13.34,13.34,0,0,1-3,4.43.5.5,0,0,0,.71.71,15.07,15.07,0,0,0,3.25-4.87.5.5,0,0,0-.29-.59.51.51,0,0,0-.63.2l-3.31,4.81a.51.51,0,0,0,.18.69.51.51,0,0,0,.68-.18Z" transform="translate(-670.35 -464.35)"/><path class="cls-9" d="M729.84,510.71a10.3,10.3,0,0,1,4.15,1.95.53.53,0,0,0,.71,0,.51.51,0,0,0,0-.71,11.65,11.65,0,0,0-4.59-2.21.5.5,0,0,0-.27,1Z" transform="translate(-670.35 -464.35)"/><path class="cls-9" d="M733.2,511.32a7.34,7.34,0,0,1-4-1.89c-.47-.43-1.18.27-.71.71a8.48,8.48,0,0,0,4.74,2.18c.27,0,.5-.25.5-.5a.52.52,0,0,0-.5-.5Z" transform="translate(-670.35 -464.35)"/><path class="cls-9" d="M729.4,510.23l-.25,3.23a.5.5,0,0,0,1,0l.25-3.23a.5.5,0,0,0-.5-.5.51.51,0,0,0-.5.5Z" transform="translate(-670.35 -464.35)"/><path class="cls-9" d="M729.92,511.45a8.74,8.74,0,0,0-1.08-2.84.5.5,0,0,0-.87.51,5.71,5.71,0,0,1,.35.64c.12.25.16.34.25.57a8.33,8.33,0,0,1,.39,1.38.49.49,0,0,0,.61.35.51.51,0,0,0,.35-.61Z" transform="translate(-670.35 -464.35)"/><path class="cls-9" d="M719,546.8,712.75,542l-.5.87,6.37,3.41c.56.3,1.07-.56.5-.87L712.75,542a.5.5,0,0,0-.5.87l6.26,4.77a.5.5,0,0,0,.68-.18.52.52,0,0,0-.18-.69Z" transform="translate(-670.35 -464.35)"/><path class="cls-9" d="M718.41,546.8" transform="translate(-670.35 -464.35)"/><path class="cls-9" d="M719.57,546.58a26.77,26.77,0,0,0-3-7.45.5.5,0,0,0-.86.5c1.13,2,2.16,4,3.11,6.06.27.59,1.13.08.86-.5q-1.41-3.11-3.11-6.06l-.86.5a26.14,26.14,0,0,1,2.9,7.22c.14.63,1.11.36,1-.27Z" transform="translate(-670.35 -464.35)"/><path class="cls-9" d="M719.07,546.92l5.89-5.39c.48-.44-.23-1.14-.7-.71a27.38,27.38,0,0,0-5,6c-.33.55.53,1.05.87.5a26.52,26.52,0,0,1,4.78-5.78l-.7-.71-5.9,5.4c-.47.43.24,1.14.71.7Z" transform="translate(-670.35 -464.35)"/><path class="cls-9" d="M720.13,546.33c-.43-.89.25-2,.64-2.77s.9-1.77,1.38-2.64q1.47-2.7,3.14-5.28l-.86-.51q-2.28,5.07-4.87,10l.92.39.28-.72c.24-.6-.73-.86-1-.27l-.29.72c-.2.53.65.89.92.39q2.58-4.92,4.86-10a.5.5,0,0,0-.86-.51c-1.27,2-2.45,4-3.55,6-.51,1-1,1.94-1.48,3a3.17,3.17,0,0,0-.14,2.72c.28.58,1.14.07.87-.51Z" transform="translate(-670.35 -464.35)"/><path class="cls-9" d="M719.75,547.27l3.22,2.35.51-.86a30.63,30.63,0,0,1-4.85-2.87.5.5,0,1,0-.51.86,31.56,31.56,0,0,0,4.85,2.87.5.5,0,0,0,.51-.86l-3.23-2.35a.49.49,0,0,0-.68.18.5.5,0,0,0,.18.68Z" transform="translate(-670.35 -464.35)"/><path class="cls-9" d="M717,545.63l-3.55,4c-.36.41.1,1.09.61.78a19.88,19.88,0,0,0,4.87-4.18.52.52,0,0,0,0-.71.5.5,0,0,0-.71,0,19.09,19.09,0,0,1-4.66,4l.6.79,3.54-4a.51.51,0,0,0,0-.71.5.5,0,0,0-.7,0Z" transform="translate(-670.35 -464.35)"/><path class="cls-9" d="M723.34,558.79l3.32-10.19-1-.26-1.92,9.86c-.12.63.85.9,1,.27l1.92-9.87a.5.5,0,0,0-1-.26l-3.32,10.19c-.2.61.77.87,1,.26Z" transform="translate(-670.35 -464.35)"/><path class="cls-9" d="M723.89,560.31a18.68,18.68,0,0,1,4.89-.43c.59,0,.64-.8.13-1a9.28,9.28,0,0,0-5.71-.18.5.5,0,0,0,.27,1,8.38,8.38,0,0,1,5.17.18l.14-1a19.89,19.89,0,0,0-5.16.47c-.62.14-.36,1.11.27,1Z" transform="translate(-670.35 -464.35)"/><path class="cls-9" d="M722.75,559a39.67,39.67,0,0,0-7,4.91c-.45.39.13,1,.61.78l7.25-3.56c.58-.29.07-1.15-.5-.87l-7.26,3.57.61.79a38.54,38.54,0,0,1,6.79-4.76c.57-.31.06-1.17-.5-.86Z" transform="translate(-670.35 -464.35)"/><path class="cls-9" d="M722.62,559.63A39.66,39.66,0,0,1,716,557l-.25.93a18.82,18.82,0,0,1,7.54.54.5.5,0,0,0,.27-1,19.63,19.63,0,0,0-7.81-.58c-.44.06-.75.68-.26.93a40.83,40.83,0,0,0,6.82,2.7.5.5,0,0,0,.27-1Z" transform="translate(-670.35 -464.35)"/><path class="cls-9" d="M722.31,558.68a27,27,0,0,1-4.1-1.56l-.12.91a7.85,7.85,0,0,1,4.79.23l-.37-.48a.15.15,0,0,1-.06.14c-.53.36,0,1.22.5.86a1.21,1.21,0,0,0,.56-1,.52.52,0,0,0-.36-.49,8.82,8.82,0,0,0-5.33-.22.5.5,0,0,0-.12.91,27.85,27.85,0,0,0,4.35,1.66.5.5,0,0,0,.26-1Z" transform="translate(-670.35 -464.35)"/><path class="cls-9" d="M719.33,558.5a8,8,0,0,1,4.06.07.5.5,0,0,0,.27-1,9.27,9.27,0,0,0-4.59-.07c-.63.15-.36,1.12.26,1Z" transform="translate(-670.35 -464.35)"/><path class="cls-9" d="M723.31,560.65a7.19,7.19,0,0,0-.52,2.75.5.5,0,0,0,.93.25,20,20,0,0,0,2.13-5c.13-.45-.51-.89-.83-.49l-.51.62a.52.52,0,0,0,0,.71.5.5,0,0,0,.71,0l.5-.62-.83-.49a18.76,18.76,0,0,1-2,4.74l.94.25a6.28,6.28,0,0,1,.49-2.49.5.5,0,0,0-.35-.61.52.52,0,0,0-.62.35Z" transform="translate(-670.35 -464.35)"/><path class="cls-9" d="M731.48,569.93c.09-2.3.11-4.61,0-6.92h-1a46.87,46.87,0,0,0,1,7.07c.14.63,1.11.36,1-.27a43.38,43.38,0,0,1-1-6.8c0-.63-1-.65-1,0,.07,2.31.05,4.62,0,6.92,0,.65,1,.65,1,0Z" transform="translate(-670.35 -464.35)"/><path class="cls-9" d="M732.05,570.16a9.12,9.12,0,0,0-3.61-.75.5.5,0,0,0,0,1h3.42a.5.5,0,0,0,0-1h-3.42v1a7.88,7.88,0,0,1,3.11.61.5.5,0,0,0,.68-.18.49.49,0,0,0-.18-.68Z" transform="translate(-670.35 -464.35)"/><path class="cls-9" d="M731.46,570.21l3.23-.55a.49.49,0,0,0,.35-.61.52.52,0,0,0-.62-.35l-3.22.55a.5.5,0,0,0-.35.61.51.51,0,0,0,.61.35Z" transform="translate(-670.35 -464.35)"/><path class="cls-9" d="M730.56,570.59a9.78,9.78,0,0,0-.27,3.36.5.5,0,0,0,.5.5.51.51,0,0,0,.5-.5,8.89,8.89,0,0,1,.23-3.09.51.51,0,0,0-.35-.62.5.5,0,0,0-.61.35Z" transform="translate(-670.35 -464.35)"/><path class="cls-9" d="M730.69,571.35a15.23,15.23,0,0,1,1.3,1.24c.2.21.39.43.58.66l.28.33.07.1s.07.09,0,0l.15.19a.5.5,0,1,0,.86-.51,17,17,0,0,0-2.55-2.74.51.51,0,0,0-.71,0,.5.5,0,0,0,0,.7Z" transform="translate(-670.35 -464.35)"/><path class="cls-9" d="M731.32,571.38l5.91,0a.5.5,0,0,0,0-1l-5.91,0a.5.5,0,0,0,0,1Z" transform="translate(-670.35 -464.35)"/><path class="cls-9" d="M708.67,530.27,707,524.7l-1,.26,2.3,5.77a.5.5,0,0,0,.61.35,15.57,15.57,0,0,1,3.83-.63c.64,0,.65-1,0-1a16.65,16.65,0,0,0-4.09.67l.61.35L707,524.7c-.23-.58-1.15-.37-1,.26l1.67,5.58a.5.5,0,0,0,1-.27Z" transform="translate(-670.35 -464.35)"/><path class="cls-9" d="M708,530.27a38.7,38.7,0,0,0-4.2,3.23.5.5,0,0,0,0,.7.51.51,0,0,0,.71,0,35.76,35.76,0,0,1,4-3.06.51.51,0,0,0,.18-.69.51.51,0,0,0-.68-.18Z" transform="translate(-670.35 -464.35)"/><path class="cls-9" d="M707.57,531.43l3.71,8c.24.52,1.08.15.92-.38a84.33,84.33,0,0,0-3.41-9.4c-.26-.59-1.12-.08-.87.5a81.41,81.41,0,0,1,3.31,9.16l.92-.38-3.72-8c-.27-.58-1.13-.07-.86.51Z" transform="translate(-670.35 -464.35)"/><path class="cls-9" d="M708.19,530.22l-1.88-1.08a.5.5,0,0,0-.5.86l1.88,1.08a.5.5,0,1,0,.5-.86Z" transform="translate(-670.35 -464.35)"/><path class="cls-9" d="M709,529.73a1.8,1.8,0,0,1,.06-.22l0,.12a1.76,1.76,0,0,1,.14-.23l-.08.1.2-.2-.1.08.22-.13-.12,0,.16,0a.5.5,0,0,0,.35-.62.52.52,0,0,0-.23-.3.58.58,0,0,0-.39-.05,1.65,1.65,0,0,0-.73.43,1.55,1.55,0,0,0-.39.75.35.35,0,0,0,0,.2.33.33,0,0,0,.06.19.53.53,0,0,0,.3.23.51.51,0,0,0,.38-.05.5.5,0,0,0,.23-.3Z" transform="translate(-670.35 -464.35)"/><path class="cls-9" d="M708.36,545.81l-6.44-5.74-.61.79,7.11,4.85c.53.37,1-.5.5-.86l-7.1-4.85c-.47-.32-1,.4-.61.78l6.45,5.74c.48.43,1.18-.28.7-.71Z" transform="translate(-670.35 -464.35)"/><path class="cls-9" d="M709.52,545.48l1.7-3.74-.91-.39-1.23,3.71a.49.49,0,0,0,.34.61.51.51,0,0,0,.62-.35l1.23-3.7A.5.5,0,0,0,711,541a.49.49,0,0,0-.62.2l-1.7,3.74a.52.52,0,0,0,.18.69.51.51,0,0,0,.68-.18Z" transform="translate(-670.35 -464.35)"/><path class="cls-9" d="M708.24,546.56l6.49,8.48.79-.6a48.63,48.63,0,0,1-6.1-9.5c-.28-.58-1.14-.07-.86.5a49.71,49.71,0,0,0,6.25,9.7c.36.44,1.13-.15.78-.6l-6.48-8.49c-.39-.5-1.26,0-.87.51Z" transform="translate(-670.35 -464.35)"/><path class="cls-9" d="M707.94,546.5l-1.66,3.23.86.51a10,10,0,0,1,2.77-3.34.49.49,0,0,0,0-.7.51.51,0,0,0-.71,0,10.61,10.61,0,0,0-2.92,3.53.52.52,0,0,0,.18.69.5.5,0,0,0,.68-.18L708.8,547a.5.5,0,0,0-.17-.68.51.51,0,0,0-.69.18Z" transform="translate(-670.35 -464.35)"/><path class="cls-9" d="M709.52,547.39a40.1,40.1,0,0,1,4.78-.06c.59,0,.64-.81.13-1l-.74-.25a.5.5,0,0,0-.26,1l.73.26.14-1a40.1,40.1,0,0,0-4.78.06.51.51,0,0,0-.5.5.5.5,0,0,0,.5.5Z" transform="translate(-670.35 -464.35)"/><path class="cls-9" d="M708.22,545.84l-2.44,1.3a.5.5,0,0,0,.5.87l2.45-1.3a.52.52,0,0,0,.18-.69.53.53,0,0,0-.69-.18Z" transform="translate(-670.35 -464.35)"/><path class="cls-9" d="M708.74,548.54a32.79,32.79,0,0,1-2.15,7.78.5.5,0,0,0,.35.62.51.51,0,0,0,.61-.35,32.45,32.45,0,0,0,2.15-7.78.52.52,0,0,0-.35-.62.5.5,0,0,0-.61.35Z" transform="translate(-670.35 -464.35)"/><path class="cls-9" d="M721.87,568.84v-4.19a.51.51,0,0,0-.5-.5.51.51,0,0,0-.5.5,13.7,13.7,0,0,0,.25,4.14.5.5,0,0,0,1-.27,12.88,12.88,0,0,1-.22-3.87h-1v4.19a.5.5,0,0,0,1,0Z" transform="translate(-670.35 -464.35)"/><path class="cls-9" d="M722.18,568.78l2.66.12-.25-.93a4.58,4.58,0,0,1-3.07.32.51.51,0,0,0-.61.35.5.5,0,0,0,.35.62,5.79,5.79,0,0,0,3.84-.42.53.53,0,0,0,.23-.57.53.53,0,0,0-.49-.37l-2.66-.12a.5.5,0,0,0-.5.5.51.51,0,0,0,.5.5Z" transform="translate(-670.35 -464.35)"/><path class="cls-9" d="M721.33,569.5l-.52,3.16,1,.13-.25-3.94a.51.51,0,0,0-.5-.5.5.5,0,0,0-.5.5l.25,3.94a.5.5,0,0,0,.43.49.49.49,0,0,0,.55-.36l.52-3.15a.52.52,0,0,0-.35-.62.51.51,0,0,0-.61.35Z" transform="translate(-670.35 -464.35)"/><path class="cls-9" d="M720.94,568.44l-3.94-1.2-.27,1,5,1.12c.63.14.89-.83.26-1l-5-1.11a.5.5,0,0,0-.27,1l3.95,1.21c.61.19.88-.78.26-1Z" transform="translate(-670.35 -464.35)"/><path class="cls-9" d="M721.46,567.41,714.81,561l-.22.84c.25,0,.53.19.7.35s.51.47.76.71l1.7,1.64,3.35,3.23c.47.44,1.18-.26.71-.71l-3.76-3.61c-.61-.6-1.23-1.19-1.85-1.78a2.19,2.19,0,0,0-1.88-.8.51.51,0,0,0-.22.84l6.66,6.43c.46.45,1.17-.25.7-.7Z" transform="translate(-670.35 -464.35)"/><path class="cls-9" d="M711,557.56l-.92,1.84.92.38c0-.17.1-.35.16-.52s.07-.19.11-.28c0,.08,0,0,0,0a1.17,1.17,0,0,0,.05-.11,1.76,1.76,0,0,1,.14-.23.83.83,0,0,1,.08-.12l0,0,.19-.19,0,0s-.06,0,0,0l.09-.05.09,0h0l.23,0c.11,0-.12,0,0,0h.21c.13,0-.08,0,0,0l.19,0c.1,0-.09,0,0,0a.41.41,0,0,1,.11.07c.08,0-.07-.08,0,0l.06.07c.07.07,0-.09,0,0s.07.16,0,0a.5.5,0,1,0,1-.27,1.46,1.46,0,0,0-1-.87,1.92,1.92,0,0,0-1.29.13,3.32,3.32,0,0,0-1.47,2.26.51.51,0,0,0,.29.59.5.5,0,0,0,.63-.21l.92-1.84a.5.5,0,0,0-.87-.5Z" transform="translate(-670.35 -464.35)"/><path class="cls-9" d="M716.19,517.89a5.83,5.83,0,0,0-.57-3.53.51.51,0,0,0-.94.25,4.41,4.41,0,0,0,.83,2.37.5.5,0,0,0,.87-.5,3.12,3.12,0,0,1-.29-.45c-.05-.08-.08-.16-.12-.24s0,.08,0-.07l0-.13a3.32,3.32,0,0,1-.21-1l-.93.25a4.74,4.74,0,0,1,.46,1.39,4.54,4.54,0,0,1,0,.69,2.38,2.38,0,0,1,0,.38,1,1,0,0,1,0,.17s0,.07,0,.11,0,0,0,0a.52.52,0,0,0,.35.61.5.5,0,0,0,.62-.35Z" transform="translate(-670.35 -464.35)"/><path class="cls-9" d="M716.26,517.21a9.55,9.55,0,0,1,3,.15l.13-1c-1.35.17-2.7.39-4,.66a.49.49,0,0,0-.35.61.5.5,0,0,0,.61.35c1.25-.25,2.51-.46,3.77-.62a.51.51,0,0,0,.49-.43.49.49,0,0,0-.36-.55,10.31,10.31,0,0,0-3.23-.19.51.51,0,0,0-.5.5.51.51,0,0,0,.5.5Z" transform="translate(-670.35 -464.35)"/><path class="cls-9" d="M715.76,517.76v.81a.51.51,0,0,0,.15.35.49.49,0,0,0,.35.15.53.53,0,0,0,.36-.15.48.48,0,0,0,.14-.35v-.81a.52.52,0,0,0-.14-.35.53.53,0,0,0-.36-.15.51.51,0,0,0-.35.15.53.53,0,0,0-.15.35Z" transform="translate(-670.35 -464.35)"/><path class="cls-9" d="M709.15,563.48a24,24,0,0,0-5-.78v1a19.31,19.31,0,0,1,4.79.45c.62.14.89-.83.26-1a20.9,20.9,0,0,0-5-.48.5.5,0,0,0,0,1,22,22,0,0,1,4.78.74.5.5,0,0,0,.27-1Z" transform="translate(-670.35 -464.35)"/><path class="cls-9" d="M709,562.82a18.91,18.91,0,0,0,.73-3.56h-1l.33,3.67a.51.51,0,0,0,.5.5.5.5,0,0,0,.5-.5l-.33-3.67a.51.51,0,0,0-.5-.5.51.51,0,0,0-.5.5,17.66,17.66,0,0,1-.69,3.29.5.5,0,1,0,1,.27Z" transform="translate(-670.35 -464.35)"/><path class="cls-9" d="M709.13,563.74a9.06,9.06,0,0,1,1.17.28,6.69,6.69,0,0,1,1.06.42l.25-.94a8.52,8.52,0,0,1-1.43,0,5.69,5.69,0,0,1-.63-.08l-.69-.15a.5.5,0,1,0-.27,1,8.78,8.78,0,0,0,3,.24.5.5,0,0,0,.25-.93,8.91,8.91,0,0,0-2.47-.79.51.51,0,0,0-.61.35.49.49,0,0,0,.35.61Z" transform="translate(-670.35 -464.35)"/><path class="cls-9" d="M708.32,563.89l-.59,2.14a.5.5,0,0,0,.35.61.5.5,0,0,0,.61-.35l.59-2.13a.51.51,0,0,0-.35-.62.5.5,0,0,0-.61.35Z" transform="translate(-670.35 -464.35)"/><path class="cls-9" d="M701.7,551q-3.65-2.38-7.05-5.11l-.48.84a13.48,13.48,0,0,1,7.19,3.7c.46.46,1.17-.25.71-.7a14.39,14.39,0,0,0-7.64-4c-.43-.07-.92.49-.48.84q3.49,2.8,7.25,5.27c.54.35,1-.51.5-.87Z" transform="translate(-670.35 -464.35)"/><path class="cls-9" d="M701.17,550.42,695,545.86a.5.5,0,1,0-.51.86l6.19,4.57a.5.5,0,0,0,.68-.18.51.51,0,0,0-.18-.69Z" transform="translate(-670.35 -464.35)"/><path class="cls-9" d="M697.71,549.14l2.45,1.29a.52.52,0,0,0,.69-.18.51.51,0,0,0-.18-.69l-2.45-1.28a.5.5,0,1,0-.51.86Z" transform="translate(-670.35 -464.35)"/><path class="cls-9" d="M698.72,548.47l1.85,1.66a.52.52,0,0,0,.71,0,.51.51,0,0,0,0-.71l-1.85-1.65a.5.5,0,0,0-.71,0,.51.51,0,0,0,0,.7Z" transform="translate(-670.35 -464.35)"/><path class="cls-9" d="M701.89,550.47a62.19,62.19,0,0,0-3.87-7l-.87.51,3.66,5.49c.35.53,1.22,0,.86-.51L698,543.45c-.36-.53-1.21,0-.87.51a59.06,59.06,0,0,1,3.87,7c.27.59,1.14.08.87-.5Z" transform="translate(-670.35 -464.35)"/><path class="cls-9" d="M701.1,550.74a18.13,18.13,0,0,0,3.65-3.92l-.87-.5-2,4a.51.51,0,0,0,.18.68.49.49,0,0,0,.68-.17l2-4a.5.5,0,0,0-.87-.5,17.12,17.12,0,0,1-3.49,3.72.49.49,0,0,0,0,.7.51.51,0,0,0,.71,0Z" transform="translate(-670.35 -464.35)"/><path class="cls-9" d="M701.48,551a15.78,15.78,0,0,0,2.69,1.36l.13-1a7.8,7.8,0,0,1-3.55-.38.5.5,0,0,0-.26,1,8.49,8.49,0,0,0,3.81.42.51.51,0,0,0,.49-.44.52.52,0,0,0-.36-.55,14.5,14.5,0,0,1-2.45-1.25.49.49,0,0,0-.68.18.5.5,0,0,0,.18.68Z" transform="translate(-670.35 -464.35)"/><path class="cls-9" d="M700.05,533.15l-4.24-3.51-.61.78a34.87,34.87,0,0,0,4.27,2.37.5.5,0,0,0,.68-.18.49.49,0,0,0-.18-.68,34.75,34.75,0,0,1-4.26-2.37c-.47-.31-1.05.42-.61.78l4.24,3.51a.5.5,0,0,0,.71,0,.49.49,0,0,0,0-.7Z" transform="translate(-670.35 -464.35)"/><path class="cls-9" d="M700.35,533.65a21.67,21.67,0,0,0,2.58-4.51l-.91-.39a15.44,15.44,0,0,1-2,4.4c-.35.54.51,1,.86.51A16.27,16.27,0,0,0,703,529a.5.5,0,0,0-.91-.39,21.46,21.46,0,0,1-2.59,4.51.5.5,0,0,0,.87.51Z" transform="translate(-670.35 -464.35)"/><path class="cls-9" d="M700.8,533.85a4.12,4.12,0,0,1,2.13,1l.49-.83-3.67-1.17a.5.5,0,1,0-.27,1l3.68,1.16a.5.5,0,0,0,.48-.83,5,5,0,0,0-2.57-1.22.5.5,0,1,0-.27,1Z" transform="translate(-670.35 -464.35)"/><path class="cls-9" d="M699.5,533a16.22,16.22,0,0,0-2.82,3.68.5.5,0,0,0,.68.69,8.12,8.12,0,0,0,3.72-3.76.5.5,0,1,0-.87-.51,7,7,0,0,1-3.36,3.4l.69.69a15.06,15.06,0,0,1,2.67-3.48.5.5,0,0,0-.71-.71Z" transform="translate(-670.35 -464.35)"/><path class="cls-9" d="M701.08,532.3a38.18,38.18,0,0,0-3.71-6.32.5.5,0,0,0-.86.5,65.82,65.82,0,0,0,3.78,6.83c.35.54,1.21,0,.87-.51a65.76,65.76,0,0,1-3.79-6.82l-.86.5a39.72,39.72,0,0,1,3.71,6.33c.27.58,1.14.08.86-.51Z" transform="translate(-670.35 -464.35)"/><path class="cls-9" d="M708.23,518.56a25,25,0,0,0-1.42-5.83.52.52,0,0,0-.62-.35.51.51,0,0,0-.35.62,50.86,50.86,0,0,0,2,4.89.5.5,0,0,0,.68.18.5.5,0,0,0,.18-.68,46.09,46.09,0,0,1-1.92-4.66l-1,.27a23.72,23.72,0,0,1,1.39,5.56.5.5,0,0,0,1,0Z" transform="translate(-670.35 -464.35)"/><path class="cls-9" d="M708.33,518.79l1.74.72-.12-.91-.2.12-.11,0,0,0h0a2.2,2.2,0,0,1-.44.12h-.45l-.23-.05a.5.5,0,1,0-.27,1,2.63,2.63,0,0,0,2.2-.31.49.49,0,0,0,.23-.49.49.49,0,0,0-.35-.42l-1.74-.72a.48.48,0,0,0-.39,0,.53.53,0,0,0-.23.3.5.5,0,0,0,0,.38.57.57,0,0,0,.3.23Z" transform="translate(-670.35 -464.35)"/><path class="cls-9" d="M707.7,519.11l0,2.08,1-.14a8.62,8.62,0,0,1-.2-3.28.5.5,0,0,0-1,0,9.46,9.46,0,0,0,.24,3.55.5.5,0,0,0,1-.13l0-2.08a.51.51,0,0,0-.5-.5.5.5,0,0,0-.5.5Z" transform="translate(-670.35 -464.35)"/><path class="cls-9" d="M707.53,517.83l-1.88.54a.5.5,0,0,0,.26,1l1.89-.53a.52.52,0,0,0,.35-.62.53.53,0,0,0-.62-.35Z" transform="translate(-670.35 -464.35)"/><path class="cls-9" d="M717.88,510.5a12.31,12.31,0,0,0-.93-3.67.51.51,0,0,0-.92.39l1.14,2.86a.53.53,0,0,0,.61.35,3.2,3.2,0,0,1,2.38.64l.35-.86a20.15,20.15,0,0,0-2.79.21.51.51,0,0,0-.35.62.52.52,0,0,0,.62.34,19.28,19.28,0,0,1,2.52-.17.5.5,0,0,0,.36-.85,4.36,4.36,0,0,0-3.35-.9l.61.35L717,507l-.92.39a10.49,10.49,0,0,1,.8,3.16.52.52,0,0,0,.5.5.5.5,0,0,0,.5-.5Z" transform="translate(-670.35 -464.35)"/><path class="cls-9" d="M716.87,510.5a3.85,3.85,0,0,0-.53,2.9.5.5,0,0,0,.55.36.49.49,0,0,0,.43-.49,8.09,8.09,0,0,1,.19-2.91.5.5,0,1,0-1-.27,9,9,0,0,0-.23,3.18l1-.13,0-.15c0-.12,0,0,0-.07s0-.2,0-.3a2.24,2.24,0,0,1,0-.55,3,3,0,0,1,.17-.58h0l0-.07a.83.83,0,0,1,.07-.13,2.75,2.75,0,0,1,.17-.29.5.5,0,0,0-.18-.68.52.52,0,0,0-.69.18Z" transform="translate(-670.35 -464.35)"/><path class="cls-9" d="M716.8,509.62a9,9,0,0,1-3.71-.93l-.26.93,3.43.34a.51.51,0,0,0,.5-.5.5.5,0,0,0-.5-.5l-3.43-.34a.5.5,0,0,0-.25.93,10.18,10.18,0,0,0,4.22,1.07.5.5,0,0,0,0-1Z" transform="translate(-670.35 -464.35)"/><path class="cls-10" d="M735,514.15a8.58,8.58,0,0,0,5.91-2.78,6.49,6.49,0,0,0,1.31-6.26c-.9-2.52-3.38-4.05-5.08-6.11-2.84-3.46-3.32-8.24-3.67-12.7.17,3.65-3,6.44-5,9.48-2.55,3.78-3.44,8.83-1.57,13s6.82,6.92,11.18,5.62" transform="translate(-670.35 -464.35)"/><path class="cls-7" d="M734.88,514.84a14.76,14.76,0,0,1-10-2.91,12,12,0,0,1-4.7-9.18c0-2.73,1-5.34,1.72-8s1.21-5.5.18-8a28.64,28.64,0,0,0,4.66,7.06c1.43,1.44,3.16,2.57,4.4,4.18,1.81,2.36,2.31,5.44,2.76,8.38s.77,6.25-1.23,8.4" transform="translate(-670.35 -464.35)"/><path class="cls-10" d="M732.63,515.11a22.4,22.4,0,0,1-7.52-1.05c-3.67-1-7.6-2.63-9.26-6.06-1.3-2.69-.87-5.85-.74-8.85s-.25-6.37-2.57-8.25c2.17,3.36,6.46,4.51,9.88,6.59a19.15,19.15,0,0,1,9,17.75" transform="translate(-670.35 -464.35)"/><path class="cls-7" d="M731.43,515.27a78.68,78.68,0,0,1-12.64-.95,15,15,0,0,1-4.43-1.2,5.91,5.91,0,0,1-3.09-3.26c-.58-1.75,0-3.67-.35-5.49a11.91,11.91,0,0,0-2.21-4.5,10.79,10.79,0,0,0,3.93,2.53,15.45,15.45,0,0,0,2.89.38,17.45,17.45,0,0,1,14.79,12.43" transform="translate(-670.35 -464.35)"/><path class="cls-7" d="M736.91,512.18a8.53,8.53,0,0,1-5.91-2.77,6.49,6.49,0,0,1-1.31-6.26c.9-2.52,3.39-4,5.08-6.11,2.85-3.46,3.32-8.24,3.67-12.71-.17,3.66,3,6.45,5.06,9.49,2.54,3.77,3.44,8.83,1.56,13s-6.82,6.91-11.18,5.62" transform="translate(-670.35 -464.35)"/><path class="cls-10" d="M737.05,512.88a14.8,14.8,0,0,0,10-2.91,12,12,0,0,0,4.7-9.18c0-2.73-1-5.34-1.71-8s-1.22-5.5-.19-8a28.27,28.27,0,0,1-4.66,7.06c-1.42,1.44-3.16,2.58-4.39,4.19-1.81,2.36-2.32,5.44-2.77,8.38s-.76,6.25,1.23,8.39" transform="translate(-670.35 -464.35)"/><path class="cls-7" d="M739.31,513.15a22.63,22.63,0,0,0,7.51-1c3.67-1,7.6-2.63,9.26-6.06,1.3-2.7.87-5.86.74-8.85s.25-6.37,2.58-8.26c-2.18,3.37-6.46,4.52-9.89,6.59a19.18,19.18,0,0,0-9,17.76" transform="translate(-670.35 -464.35)"/><path class="cls-10" d="M740.5,513.31a79.84,79.84,0,0,0,12.64-.95,15.31,15.31,0,0,0,4.43-1.2,5.88,5.88,0,0,0,3.09-3.26c.59-1.75,0-3.68.36-5.49a11.88,11.88,0,0,1,2.21-4.51,10.9,10.9,0,0,1-3.93,2.54,15.66,15.66,0,0,1-2.9.37,17.47,17.47,0,0,0-14.78,12.44" transform="translate(-670.35 -464.35)"/><path class="cls-3" d="M703.41,579.63l.24-1.46c4.09-1.18,5.37-5,7.22-8.09,2-3.38,4.41-4.94,8.25-3.22a50.08,50.08,0,0,1-.56,6.22c-.53,4.16-2.43,9.06,3.69,11.11.11,2.21-1.68,3.62-2.32,5.51a39.6,39.6,0,0,1-9.8-1.42,11.62,11.62,0,0,1,.38-2.52c1.45-3.77.2-5.73-3.75-5.29A4.34,4.34,0,0,1,703.41,579.63Z" transform="translate(-670.35 -464.35)"/><path class="cls-5" d="M766,594c-1-5.23,1.14-8.61,6.56-10.33a17.92,17.92,0,0,1,11.23.43c-.72,2.27-2.6,2.65-4.42,3.13-1.69,0-3.39.07-5.07,0s-2.09.8-1.67,2.39.85,3.31,1.27,5Z" transform="translate(-670.35 -464.35)"/><path class="cls-6" d="M788.74,595.23c-1.35,3.67-4,4.73-7.48,4.58-1.94-.09-3.88.07-5.83.11a9.29,9.29,0,0,1-1-5.27l7.33-2.7C784.3,592.57,786.91,593,788.74,595.23Z" transform="translate(-670.35 -464.35)"/><path class="cls-5" d="M719.12,566.86c-3.84-1.72-6.23-.16-8.25,3.22-1.85,3.12-3.13,6.91-7.22,8.09-.49-5.53,2.21-9.87,5.69-13.61,2.17-2.33,5.75-2,8.73-2.57,6.38-1.12,12.59-.91,17.56,4.17-.62,2.25-2.81,2.27-4.43,3.09C727,569.42,723.4,566.4,719.12,566.86Z" transform="translate(-670.35 -464.35)"/><path class="cls-4" d="M788.74,595.23c-1.83-2.28-4.44-2.66-7-3.28.18-2.14.46-4.34-2.41-4.68,1.82-.48,3.7-.86,4.42-3.13.24,0,.52-.15.72-.07,3,1.17,6,7.68,4.86,10.81C789.32,595.06,789,595.11,788.74,595.23Z" transform="translate(-670.35 -464.35)"/><path class="cls-4" d="M774.46,594.65a9.29,9.29,0,0,0,1,5.27c-.89,0-1.79.05-2.68,0-5.32-.25-5.32-.26-6.74-5.89l7.91.56Z" transform="translate(-670.35 -464.35)"/><path class="cls-4" d="M731.2,569.25c1.62-.82,3.81-.84,4.43-3.09,2.74,1.05,2.07,3.91,3.08,5.88a27.58,27.58,0,0,1,1.42,4.57c-1.53,2.85-4.24,2.2-6.71,2.27A33.57,33.57,0,0,1,731.2,569.25Z" transform="translate(-670.35 -464.35)"/><path class="cls-4" d="M719.93,589.7c.64-1.89,2.43-3.3,2.32-5.51,3.31-1.69,6.58-3.51,10.4-3.82a11.09,11.09,0,0,1-2.21,7.94A64,64,0,0,1,719.93,589.7Z" transform="translate(-670.35 -464.35)"/><path class="cls-6" d="M730.44,588.31a11.09,11.09,0,0,0,2.21-7.94c.26-.49.52-1,.77-1.49,2.47-.07,5.18.58,6.71-2.27C740.57,584.43,738.92,586.42,730.44,588.31Z" transform="translate(-670.35 -464.35)"/><path class="cls-7" d="M703.41,579.63a4.34,4.34,0,0,0,3.35.84c4-.44,5.2,1.52,3.75,5.29a11.62,11.62,0,0,0-.38,2.52C705.16,587.08,703.71,585.21,703.41,579.63Z" transform="translate(-670.35 -464.35)"/><path class="cls-7" d="M733.42,578.88c-.25.5-.51,1-.77,1.49-3.82.31-7.09,2.13-10.4,3.82-6.12-2.05-4.22-7-3.69-11.11a50.08,50.08,0,0,0,.56-6.22c4.28-.46,7.86,2.56,12.08,2.39A33.57,33.57,0,0,0,733.42,578.88Z" transform="translate(-670.35 -464.35)"/><path class="cls-7" d="M774.46,594.65l-.54,0c-.43-1.65-.84-3.31-1.28-5s-.11-2.49,1.67-2.39,3.38,0,5.07,0c2.87.34,2.59,2.54,2.41,4.68Z" transform="translate(-670.35 -464.35)"/></g></g></svg>